<?xml version="1.0" encoding="utf-8"?>
<!-- Generator: Adobe Illustrator 27.5.0, SVG Export Plug-In . SVG Version: 6.00 Build 0)  -->
<svg version="1.1" xmlns="http://www.w3.org/2000/svg" xmlns:xlink="http://www.w3.org/1999/xlink" x="0px" y="0px"
	 viewBox="0 0 500 500" style="enable-background:new 0 0 500 500;" xml:space="preserve">
<g id="BACKGROUND">
	<rect style="fill:#FFC060;" width="500" height="500"/>
</g>
<g id="OBJECTS">
	<g>
		<g>
			<ellipse style="fill:#FF9E58;" cx="273.812" cy="370.851" rx="211.459" ry="10.743"/>
			<g>
				<g>
					<g>
						<path style="fill:#CC6600;" d="M157.129,208.659h-33.198V174.77h9.156c13.278,0,24.041,10.764,24.041,24.041V208.659z"/>
						<path style="fill:#9B4A00;" d="M128.188,182.686h-4.256v25.973h28.298v-1.932
							C152.229,193.449,141.465,182.686,128.188,182.686z"/>
						
							<rect x="117.641" y="163.991" transform="matrix(0.8457 -0.5337 0.5337 0.8457 -74.4624 92.951)" style="fill:#9B4A00;" width="11.731" height="22.501"/>
						<polygon style="fill:#CC6600;" points="122.463,162.597 120.782,163.657 132.774,182.662 134.47,181.625 						"/>
						<path style="fill:#9B4A00;" d="M117.354,193.828L117.354,193.828c-1.792-1.687-1.877-4.508-0.19-6.3l12.063-12.812
							c1.687-1.792,4.508-1.877,6.3-0.19l0,0c1.792,1.687,1.877,4.508,0.19,6.3l-12.063,12.812
							C121.967,195.43,119.146,195.515,117.354,193.828z"/>
						<g>
							<path style="fill:#CC6600;" d="M135.527,174.526c-1.483-1.396-3.661-1.56-5.328-0.566c0.703,0.112,1.392,0.378,2.012,0.817
								l0,0c2.156,1.529,2.665,4.516,1.136,6.671l-5.441,7.673l7.811-8.296C137.404,179.034,137.32,176.213,135.527,174.526z"/>
						</g>
						<path style="fill:#9B4A00;" d="M123.636,189.182L123.636,189.182c0.07,1.729-1.275,3.188-3.004,3.259l-12.365,0.503
							c-1.729,0.07-3.188-1.275-3.259-3.004l0,0c-0.07-1.729,1.275-3.188,3.004-3.259l12.365-0.503
							C122.107,186.108,123.566,187.453,123.636,189.182z"/>
						<path style="fill:#9B4A00;" d="M108.09,196.575L108.09,196.575c-1.729,0.089-3.202-1.239-3.292-2.968l-0.045-3.455
							c-0.09-1.729,1.239-3.202,2.968-3.292l0,0c1.729-0.089,3.202,1.239,3.292,2.968l0.045,3.455
							C111.148,195.012,109.819,196.486,108.09,196.575z"/>
						<path style="fill:#CC6600;" d="M123.636,189.182L123.636,189.182c-0.07-1.729-1.529-3.075-3.259-3.004l-10.728,0.436
							c-0.012,0.134-0.03,0.266-0.024,0.404c0.07,1.729,1.529,3.075,3.259,3.004l10.728-0.436
							C123.624,189.453,123.642,189.32,123.636,189.182z"/>
						<path style="fill:#CC6600;" d="M118.42,176.809l-9.315,3.092c-3.083,1.023-6.412-0.647-7.435-3.73l-0.494-1.488l14.395-6.459
							L118.42,176.809z"/>
						<path style="fill:#9B4A00;" d="M109.105,179.9l9.315-3.091l-1.525-4.595l-15.562,2.763l0.017,0.231l0.319,0.963
							C102.693,179.254,106.022,180.923,109.105,179.9z"/>
						<path style="fill:#440908;" d="M101.175,172.84c1.128,0.651,1.669,1.824,1.21,2.62c-0.46,0.796-1.746,0.914-2.874,0.263
							c-1.128-0.651-1.669-1.824-1.21-2.62C98.76,172.307,100.047,172.189,101.175,172.84z"/>
						<path style="fill:#CC6600;" d="M118.788,163.198v-6.426c0-1.023,0.829-1.852,1.852-1.852h15.099
							C135.739,154.921,130.2,163.198,118.788,163.198z"/>
						<path style="fill:#9B4A00;" d="M126.755,155.626h-5.707c-0.936,0-1.694,0.758-1.694,1.694v5.878
							c1.068,0,2.077-0.083,3.033-0.225C124.524,160.38,125.891,157.76,126.755,155.626z"/>
						<path style="fill:#9B4A00;" d="M163.866,201.562c-1.214-0.66-2.268-1.392-3.18-2.179c-0.943-0.78-1.747-1.611-2.517-2.466
							c-1.509-1.717-2.669-3.569-3.638-5.511c-1.871-3.889-2.738-8.188-2.455-12.78c0.153-2.295,0.631-4.687,1.538-7.085
							c0.914-2.388,2.259-4.83,4.337-6.96c2.055-2.101,4.835-3.834,7.771-4.317c0.725-0.138,1.445-0.189,2.167-0.157
							c0.359,0.013,0.71,0.033,1.052,0.059c0.342,0.033,0.693,0.133,1.027,0.211c0.671,0.174,1.311,0.335,1.922,0.67
							c0.62,0.355,1.188,0.648,1.729,1.09l0.34,0.278c0.194,0.158,0.223,0.444,0.065,0.638c-0.072,0.088-0.171,0.142-0.275,0.16
							c-3.575,0.613-6.635,2.718-8.288,5.807c-1.693,3.068-2.354,6.703-2.574,10.313c-0.124,1.814-0.144,3.644-0.082,5.477
							c0.058,1.834,0.247,3.665,0.409,5.502c0.179,1.835,0.427,3.668,0.723,5.494c0.266,1.829,0.579,3.668,0.971,5.463
							c0.054,0.246-0.102,0.49-0.349,0.544c-0.111,0.024-0.222,0.006-0.315-0.045L163.866,201.562z"/>
						<path style="fill:#9B4A00;" d="M142.915,178.963c0.342,2.053,0.913,3.972,1.667,5.722c1.841,4.216,4.572,7.648,8.011,10.256
							c1.563,1.151,3.24,2.156,5.096,2.959C156.462,189.143,150.627,182.094,142.915,178.963z"/>
						<g>
							<path style="fill:#CC6600;" d="M173.96,162.415l-0.34-0.278c-0.542-0.442-1.11-0.735-1.729-1.09
								c-0.611-0.334-1.251-0.495-1.922-0.67c-0.335-0.078-0.686-0.178-1.027-0.211c-0.342-0.026-0.693-0.046-1.052-0.059
								c-0.722-0.032-1.442,0.019-2.167,0.157c-0.565,0.093-1.121,0.245-1.67,0.424c-0.002,0.041-0.003,0.083-0.017,0.123
								c-0.038,0.107-0.113,0.191-0.205,0.243c-3.16,1.78-5.333,4.792-5.851,8.258c-0.561,3.458,0.039,7.104,1.047,10.577
								c0.494,1.75,1.091,3.48,1.766,5.185c0.672,1.708,1.465,3.369,2.236,5.044c0.069,0.146,0.145,0.29,0.215,0.436
								c-0.008-0.081-0.02-0.162-0.028-0.243c-0.162-1.837-0.351-3.667-0.409-5.502c-0.062-1.833-0.042-3.663,0.082-5.477
								c0.22-3.609,0.881-7.245,2.574-10.313c1.654-3.089,4.714-5.194,8.288-5.807c0.104-0.018,0.203-0.072,0.275-0.16
								C174.183,162.859,174.154,162.573,173.96,162.415z"/>
						</g>
						<path style="fill:#9B4A00;" d="M119.122,175.734h-3.839c-3.228,0-5.845-2.617-5.845-5.845l0,0c0-4.68,3.794-8.475,8.475-8.475
							h3.869c2.252,0,4.078,1.826,4.078,4.078v3.504C125.86,172.718,122.844,175.734,119.122,175.734z"/>
						<path style="fill:#CC6600;" d="M121.782,161.414h-3.869c-0.327,0-0.647,0.023-0.965,0.059
							c-0.463,1.047-0.725,2.203-0.725,3.421c0,3.228,2.617,5.845,5.844,5.845h3.556c0.149-0.557,0.236-1.139,0.236-1.743v-3.504
							C125.86,163.24,124.035,161.414,121.782,161.414z"/>
						<path style="fill:#440908;" d="M111.837,169.426c0,0.422-0.342,0.764-0.763,0.764s-0.763-0.342-0.763-0.764
							c0-0.422,0.342-0.763,0.763-0.763S111.837,169.004,111.837,169.426z"/>
						<path style="fill:#CC6600;" d="M119.728,167.202l0.873-7.074c0.139-1.126,1.164-1.926,2.29-1.787l16.623,2.052
							C139.515,160.393,132.292,168.753,119.728,167.202z"/>
					</g>
					<g>
						
							<polyline style="fill:none;stroke:#CC6600;stroke-width:0.7539;stroke-linecap:round;stroke-linejoin:round;stroke-miterlimit:10;" points="
							113.969,248.832 108.552,195.346 171.266,195.346 195.747,219.827 195.747,249.335 						"/>
						<polygon style="fill:#440908;" points="195.642,250.842 113.969,250.842 113.969,235.387 113.969,219.932 195.642,219.932 
							195.642,235.387 						"/>
						<polygon style="fill:#330404;" points="195.642,250.842 113.969,250.842 113.969,247.373 113.969,243.904 195.642,243.904 
							195.642,247.373 						"/>
						<rect x="113.969" y="219.932" style="fill:#440908;" width="81.673" height="15.455"/>
						<rect x="113.969" y="219.932" style="fill:#440908;" width="81.673" height="15.455"/>
						<path style="fill:#260202;" d="M147.13,234.034h-2.798c-0.51,0-0.924-0.414-0.924-0.924v-2.798
							c0-0.51,0.414-0.924,0.924-0.924h2.798c0.51,0,0.924,0.414,0.924,0.924v2.798C148.054,233.62,147.64,234.034,147.13,234.034z"
							/>
						<path style="fill:#260202;" d="M165.86,234.046h-2.798c-0.51,0-0.924-0.414-0.924-0.924v-2.798
							c0-0.51,0.414-0.924,0.924-0.924h2.798c0.51,0,0.924,0.414,0.924,0.924v2.798C166.784,233.632,166.37,234.046,165.86,234.046z
							"/>
						<path style="fill:#260202;" d="M164.743,237.67h-0.57l1.038-5.405H164.3l-1.038,5.405h-17.831l1.038-5.405h-0.912
							l-1.038,5.405h-0.569c-0.673,0-1.346,0.546-1.501,1.219l-0.36,1.561c-0.155,0.673,0.265,1.219,0.938,1.219h20.793
							c0.674,0,1.345-0.546,1.501-1.219l0.36-1.561C165.837,238.217,165.417,237.67,164.743,237.67z"/>
						
							<line style="fill:none;stroke:#260202;stroke-width:0.7539;stroke-miterlimit:10;" x1="195.642" y1="235.387" x2="113.969" y2="235.387"/>
						<path style="fill:#CC6600;" d="M115.572,252.222L115.572,252.222c-1.058,0-1.916-0.858-1.916-1.916v-14.919v-14.919
							c0-1.058,0.858-1.916,1.916-1.916l0,0c1.058,0,1.916,0.858,1.916,1.916v14.919v14.919
							C117.488,251.365,116.63,252.222,115.572,252.222z"/>
						<path style="fill:#CC6600;" d="M193.726,252.222L193.726,252.222c-1.058,0-1.916-0.858-1.916-1.916v-14.919v-14.919
							c0-1.058,0.858-1.916,1.916-1.916l0,0c1.058,0,1.916,0.858,1.916,1.916v14.919v14.919
							C195.642,251.365,194.784,252.222,193.726,252.222z"/>
						<g>
							<g>
								<g>
									<path style="fill:#F2A300;" d="M147.412,233.751h-2.798c-0.51,0-0.924-0.414-0.924-0.924v-2.798
										c0-0.51,0.414-0.924,0.924-0.924h2.798c0.51,0,0.924,0.414,0.924,0.924v2.798
										C148.336,233.338,147.923,233.751,147.412,233.751z"/>
									<polygon style="fill:#CC6600;" points="145.272,233.751 146.184,233.751 146.469,232.266 145.557,232.266 									"/>
									<path style="fill:#CC6600;" d="M144.96,231.954v-0.769c0-0.291,0.236-0.527,0.527-0.527h0.769
										c0.291,0,0.527,0.236,0.527,0.527v0.769c0,0.291-0.236,0.527-0.527,0.527h-0.769
										C145.196,232.481,144.96,232.245,144.96,231.954z"/>
									<rect x="145.557" y="231.663" style="fill:#FFBF4D;" width="0.912" height="5.94"/>
									<path style="fill:#FFBF4D;" d="M145.102,231.813v-0.769c0-0.291,0.236-0.527,0.527-0.527h0.769
										c0.291,0,0.527,0.236,0.527,0.527v0.769c0,0.291-0.236,0.527-0.527,0.527h-0.769
										C145.337,232.34,145.102,232.104,145.102,231.813z"/>
								</g>
								<g>
									<path style="fill:#F2A300;" d="M166.155,233.751h-2.798c-0.51,0-0.924-0.414-0.924-0.924v-2.798
										c0-0.51,0.414-0.924,0.924-0.924h2.798c0.51,0,0.924,0.414,0.924,0.924v2.798
										C167.079,233.338,166.665,233.751,166.155,233.751z"/>
									<polygon style="fill:#CC6600;" points="164.015,233.751 164.926,233.751 165.211,232.266 164.3,232.266 									"/>
									<path style="fill:#CC6600;" d="M163.655,232.001v-0.769c0-0.291,0.236-0.527,0.527-0.527h0.769
										c0.291,0,0.527,0.236,0.527,0.527v0.769c0,0.291-0.236,0.527-0.527,0.527h-0.769
										C163.891,232.528,163.655,232.292,163.655,232.001z"/>
									<path style="fill:#FFBF4D;" d="M147.412,229.105h-2.798c-0.303,0-0.56,0.156-0.729,0.382
										c0.134-0.076,0.281-0.131,0.446-0.131h2.798c0.51,0,0.924,0.414,0.924,0.924v2.798c0,0.207-0.081,0.388-0.196,0.542
										c0.281-0.159,0.479-0.448,0.479-0.794v-2.798C148.337,229.519,147.923,229.105,147.412,229.105z"/>
									<path style="fill:#FFBF4D;" d="M166.154,229.105h-2.798c-0.303,0-0.56,0.156-0.729,0.382
										c0.134-0.076,0.281-0.131,0.446-0.131h2.798c0.51,0,0.924,0.414,0.924,0.924v2.798c0,0.207-0.081,0.388-0.196,0.542
										c0.281-0.159,0.479-0.448,0.479-0.794v-2.798C167.079,229.519,166.665,229.105,166.154,229.105z"/>
									<rect x="164.3" y="231.663" style="fill:#FFBF4D;" width="0.912" height="5.94"/>
									<path style="fill:#FFBF4D;" d="M163.844,231.813v-0.769c0-0.291,0.236-0.527,0.527-0.527h0.769
										c0.291,0,0.527,0.236,0.527,0.527v0.769c0,0.291-0.236,0.527-0.527,0.527h-0.769
										C164.08,232.34,163.844,232.104,163.844,231.813z"/>
								</g>
							</g>
							<path style="fill:#CC6600;" d="M165.781,240.162h-20.793c-0.673,0-1.219-0.546-1.219-1.219v-1.561
								c0-0.673,0.546-1.219,1.219-1.219h20.793c0.674,0,1.219,0.546,1.219,1.219v1.561
								C167,239.616,166.454,240.162,165.781,240.162z"/>
						</g>
						<path style="fill:#B27200;" d="M159.341,220.435h-38.588c-2.948,0-5.452-2.156-5.891-5.07l-2.973-19.751h56.316l-2.973,19.751
							C164.793,218.279,162.288,220.435,159.341,220.435z"/>
						<path style="fill:#F2A300;" d="M159.818,195.613l-2.973,19.752c-0.439,2.915-2.943,5.07-5.891,5.07h8.387
							c2.947,0,5.452-2.156,5.891-5.07l2.973-19.752H159.818z"/>
						<g>
							<path style="fill:#895400;" d="M133.363,211.129c-7.815,0-12.521-5.392-11.19-12.821l0.057-0.319
								c0.157-0.875,1.057-1.69,2.011-1.822c0.953-0.127,1.6,0.47,1.444,1.345l-0.057,0.319c-1.048,5.849,2.657,10.095,8.811,10.095
								c6.154,0,12.71-4.246,15.59-10.095l0.157-0.319c0.43-0.874,1.481-1.466,2.347-1.345c0.866,0.132,1.218,0.948,0.787,1.822
								l-0.157,0.319C149.505,205.737,141.178,211.129,133.363,211.129z"/>
						</g>
						<polygon style="fill:#895400;" points="112.746,201.308 167.839,198.046 168.205,195.613 118.616,195.613 111.948,196.008 
													"/>
						<g>
							<path style="fill:#E0D4D3;" d="M140.047,210.092c-7.513,0-13.777-5.392-14.896-12.821l-0.048-0.319
								c-0.132-0.875,0.47-1.69,1.345-1.822c0.875-0.127,1.69,0.471,1.822,1.345l0.048,0.319
								c0.881,5.849,5.813,10.095,11.728,10.095c5.915,0,10.848-4.246,11.728-10.095l0.048-0.319
								c0.132-0.874,0.95-1.467,1.822-1.345c0.875,0.132,1.477,0.947,1.345,1.822l-0.048,0.319
								C153.824,204.7,147.559,210.092,140.047,210.092z"/>
						</g>
						<g>
							<path style="fill:#E0D4D3;" d="M140.047,210.092c-7.513,0-13.777-5.392-14.896-12.821l-0.048-0.319
								c-0.132-0.875,0.47-1.69,1.345-1.822c0.875-0.127,1.69,0.471,1.822,1.345l0.048,0.319
								c0.881,5.849,5.813,10.095,11.728,10.095c5.915,0,10.848-4.246,11.728-10.095l0.048-0.319
								c0.132-0.874,0.95-1.467,1.822-1.345c0.875,0.132,1.477,0.947,1.345,1.822l-0.048,0.319
								C153.824,204.7,147.559,210.092,140.047,210.092z"/>
						</g>
						<g>
							<path style="fill:#9C9A9C;" d="M128.318,196.795l-0.048-0.319c-0.132-0.875-0.948-1.473-1.822-1.345
								c-0.875,0.132-1.477,0.947-1.345,1.822l0.048,0.319c0.137,0.91,0.354,1.789,0.638,2.632l3.375-0.149
								C128.767,198.828,128.475,197.838,128.318,196.795z"/>
							<path style="fill:#9C9A9C;" d="M154.942,197.272l0.048-0.319c0.132-0.875-0.47-1.69-1.345-1.822
								c-0.872-0.122-1.69,0.471-1.822,1.345l-0.048,0.319c-0.103,0.685-0.267,1.346-0.476,1.983l3.376-0.149
								C154.783,198.185,154.873,197.732,154.942,197.272z"/>
						</g>
						<path style="fill:#9C9A9C;" d="M168.872,198.015h-57.651c-1.474,0-2.669-1.195-2.669-2.669l0,0
							c0-1.474,1.195-2.669,2.669-2.669h57.651c1.474,0,2.669,1.195,2.669,2.669l0,0
							C171.541,196.82,170.346,198.015,168.872,198.015z"/>
						<path style="fill:#E0D4D3;" d="M168.872,192.677H136.17c-0.353,0.452-0.571,1.014-0.571,1.632
							c0,1.474,1.195,2.669,2.669,2.669h32.702c0.353-0.452,0.571-1.014,0.571-1.632
							C171.541,193.872,170.346,192.677,168.872,192.677z"/>
					</g>
				</g>
				<g>
					<g>
						<g>
							<g>
								<path style="fill:#223138;" d="M174.47,365.436c-23.539,0-42.69-19.151-42.69-42.69c0-23.539,19.15-42.69,42.69-42.69
									c23.539,0,42.69,19.151,42.69,42.69C217.16,346.285,198.009,365.436,174.47,365.436z M174.47,290.611
									c-17.719,0-32.135,14.415-32.135,32.135c0,17.72,14.416,32.135,32.135,32.135s32.135-14.415,32.135-32.135
									C206.605,305.026,192.189,290.611,174.47,290.611z"/>
							</g>
							<g>
								<path style="fill:#39424B;" d="M151.758,300.034c-5.666,6.249-8.724,14.525-8.544,22.712
									c0.147,8.19,3.556,16.198,9.343,21.913c5.717,5.784,13.724,9.193,21.913,9.34c8.186,0.179,16.461-2.876,22.712-8.54
									c-2.797,3.159-6.331,5.676-10.206,7.485c-3.899,1.768-8.185,2.743-12.507,2.82c-4.323,0.104-8.672-0.73-12.705-2.343
									c-4.028-1.636-7.717-4.099-10.807-7.163c-3.061-3.092-5.528-6.777-7.16-10.808c-1.614-4.033-2.445-8.382-2.342-12.704
									c0.077-4.321,1.052-8.607,2.82-12.505C146.084,306.366,148.6,302.831,151.758,300.034z"/>
							</g>
							
								<ellipse transform="matrix(0.2298 -0.9732 0.9732 0.2298 -179.7272 418.3968)" style="fill:#39424B;" cx="174.47" cy="322.746" rx="13.288" ry="13.288"/>
							<path style="fill:#223138;" d="M175.475,335.028c-7.327,0-13.288-5.961-13.288-13.288c0-3.408,1.301-6.511,3.418-8.865
								c-2.708,2.434-4.423,5.951-4.423,9.87c0,7.327,5.961,13.288,13.287,13.288c3.919,0,7.436-1.715,9.87-4.422
								C181.986,333.728,178.883,335.028,175.475,335.028z"/>
							<g>
								<path style="fill:#39424B;" d="M174.47,372.975c-27.696,0-50.229-22.532-50.229-50.229
									c0-27.696,22.533-50.229,50.229-50.229c27.696,0,50.229,22.532,50.229,50.229
									C224.699,350.442,202.166,372.975,174.47,372.975z M174.47,283.072c-21.876,0-39.674,17.798-39.674,39.674
									c0,21.876,17.798,39.674,39.674,39.674c21.876,0,39.674-17.798,39.674-39.674
									C214.144,300.87,196.346,283.072,174.47,283.072z"/>
							</g>
							<path style="fill:#223138;" d="M174.47,272.517c-2.368,0-4.693,0.177-6.975,0.495c-20.253,6.478-34.961,25.475-34.961,47.849
								c0,27.696,22.533,50.229,50.229,50.229c2.367,0,4.693-0.177,6.975-0.495c20.253-6.477,34.961-25.474,34.961-47.849
								C224.699,295.049,202.166,272.517,174.47,272.517z M187.352,360.261c-4.042,1.392-8.373,2.159-12.882,2.159
								c-21.876,0-39.674-17.798-39.674-39.674c0-20.323,15.364-37.117,35.085-39.4c4.042-1.392,8.373-2.159,12.882-2.159
								c21.876,0,39.674,17.798,39.674,39.674C222.437,341.185,207.074,357.979,187.352,360.261z"/>
							<g>
								<path style="fill:none;stroke:#39424B;stroke-width:0.7539;stroke-miterlimit:10;" d="M174.47,372.975
									c-27.696,0-50.229-22.532-50.229-50.229c0-27.696,22.533-50.229,50.229-50.229c27.696,0,50.229,22.532,50.229,50.229
									C224.699,350.442,202.166,372.975,174.47,372.975z M174.47,283.072c-21.876,0-39.674,17.798-39.674,39.674
									c0,21.876,17.798,39.674,39.674,39.674c21.876,0,39.674-17.798,39.674-39.674
									C214.144,300.87,196.346,283.072,174.47,283.072z"/>
							</g>
						</g>
						<path style="fill:#4F575E;" d="M175.036,309.081c-3.839,0-7.292,1.646-9.721,4.258c2.373-2.206,5.542-3.567,9.03-3.567
							c7.327,0,13.287,5.961,13.287,13.288c0,3.488-1.361,6.656-3.567,9.029c2.612-2.428,4.258-5.881,4.258-9.72
							C188.323,315.042,182.363,309.081,175.036,309.081z"/>
					</g>
					<g>
						<path style="fill:none;stroke:#39424B;stroke-width:0.7539;stroke-miterlimit:10;" d="M174.47,372.975
							c-27.696,0-50.229-22.532-50.229-50.229c0-27.696,22.533-50.229,50.229-50.229c27.696,0,50.229,22.532,50.229,50.229
							C224.699,350.442,202.166,372.975,174.47,372.975z M174.47,283.072c-21.876,0-39.674,17.798-39.674,39.674
							c0,21.876,17.798,39.674,39.674,39.674c21.876,0,39.674-17.798,39.674-39.674C214.144,300.87,196.346,283.072,174.47,283.072z
							"/>
					</g>
					<path style="fill:#121D21;" d="M202.789,337.918c-0.35,0.65-0.725,1.283-1.117,1.906c0,0-0.001,0.001-0.001,0.002
						c-0.061,0.097-0.124,0.193-0.186,0.29c0,0.001-0.001,0.002-0.001,0.002c-0.778,1.205-1.633,2.355-2.56,3.443
						c0,0-0.001,0.001-0.001,0.001c-0.101,0.118-0.203,0.236-0.305,0.353c-0.001,0.001-0.001,0.001-0.002,0.002
						c-2.568,2.925-5.654,5.382-9.119,7.223c-0.059,0.031-0.118,0.06-0.177,0.091c-0.419,0.219-0.843,0.431-1.272,0.632
						c-0.112,0.052-0.225,0.102-0.337,0.152c-0.381,0.173-0.765,0.34-1.154,0.499c-0.146,0.06-0.293,0.117-0.44,0.174
						c-0.36,0.14-0.722,0.275-1.088,0.403c-0.171,0.06-0.344,0.118-0.516,0.175c-0.347,0.114-0.696,0.222-1.049,0.325
						c-0.19,0.055-0.38,0.111-0.571,0.162c-0.343,0.093-0.688,0.179-1.036,0.261c-0.201,0.047-0.402,0.096-0.604,0.14
						c-0.344,0.074-0.692,0.139-1.04,0.203c-0.208,0.038-0.415,0.078-0.624,0.112c-0.356,0.057-0.715,0.104-1.074,0.149
						c-0.204,0.026-0.406,0.056-0.611,0.078c-0.392,0.042-0.788,0.071-1.184,0.098c-0.174,0.012-0.347,0.031-0.522,0.04
						c-0.573,0.031-1.149,0.047-1.729,0.047c-0.675,0-1.343-0.028-2.007-0.069c-0.189-0.012-0.376-0.028-0.564-0.043
						c-0.506-0.04-1.008-0.092-1.507-0.156c-0.172-0.022-0.345-0.041-0.516-0.066c-0.653-0.094-1.3-0.203-1.939-0.335
						c-0.046-0.009-0.091-0.022-0.137-0.032c-0.596-0.126-1.184-0.272-1.767-0.431c-0.161-0.044-0.321-0.09-0.482-0.137
						c-0.511-0.148-1.018-0.308-1.518-0.48c-0.117-0.04-0.236-0.078-0.353-0.12c-0.624-0.223-1.24-0.463-1.845-0.723
						c-0.037-0.016-0.073-0.034-0.11-0.05c-0.564-0.244-1.117-0.507-1.663-0.782c-0.111-0.056-0.221-0.113-0.331-0.17
						c-0.541-0.28-1.075-0.574-1.597-0.884c-0.032-0.019-0.065-0.036-0.097-0.056c-0.59-0.353-1.168-0.724-1.734-1.113
						c-0.006-0.004-0.012-0.009-0.018-0.013c-0.54-0.372-1.066-0.763-1.582-1.167c-0.055-0.043-0.109-0.085-0.164-0.128
						c-1.603-1.272-3.081-2.691-4.415-4.24c-0.012-0.014-0.025-0.029-0.038-0.043c-1.355-1.578-2.558-3.288-3.59-5.109
						c-2.859,1.019-5.151,3.232-6.269,6.045h-2.424c3.512,5.876,8.395,10.839,14.205,14.449h44.922
						c7.896-4.906,14.077-12.314,17.433-21.109H202.789z"/>
					<g>
						<path style="fill:#223138;" d="M222.284,338.116c0.021-0.066,0.042-0.132,0.063-0.198h-11.224
							c-3.908,9.406-11.335,16.988-20.628,21.109h18.657c0.134-0.129,0.271-0.255,0.404-0.385c0.067-0.063,0.134-0.125,0.199-0.19
							c0.278-0.275,0.547-0.557,0.819-0.838c0.238-0.247,0.477-0.493,0.71-0.744c0.258-0.279,0.513-0.561,0.765-0.845
							c0.154-0.173,0.303-0.349,0.454-0.524c0.082-0.095,0.165-0.188,0.245-0.283c0.24-0.282,0.479-0.564,0.713-0.852
							c0.141-0.174,0.276-0.353,0.415-0.528c0.11-0.141,0.222-0.28,0.331-0.422c0.199-0.257,0.402-0.51,0.596-0.771
							c0.407-0.548,0.803-1.105,1.188-1.67c0.171-0.251,0.334-0.508,0.501-0.763c0.07-0.107,0.138-0.215,0.207-0.323
							c0.168-0.258,0.337-0.516,0.499-0.778c0.173-0.279,0.34-0.561,0.508-0.843c0.216-0.365,0.428-0.732,0.635-1.103
							c0.155-0.277,0.31-0.554,0.459-0.835c0.224-0.419,0.439-0.843,0.651-1.269c0.117-0.236,0.239-0.467,0.353-0.705
							c0.312-0.652,0.611-1.31,0.895-1.977c0.079-0.187,0.152-0.377,0.229-0.565c0.209-0.506,0.412-1.015,0.604-1.529
							c0.098-0.263,0.191-0.529,0.285-0.794c0.11-0.311,0.214-0.625,0.318-0.939C222.185,338.407,222.237,338.263,222.284,338.116z"
							/>
						<path style="fill:#223138;" d="M140.704,343.547c-0.177,0.333-0.336,0.677-0.477,1.031h-10.987
							c0.356,0.733,0.728,1.457,1.118,2.17c0.001,0.002,0.002,0.004,0.003,0.006c0.003,0.007,0.007,0.013,0.011,0.02
							c0.386,0.704,0.787,1.399,1.204,2.082c0,0.001,0.001,0.001,0.001,0.002c0.845,1.382,1.755,2.721,2.725,4.012
							c0,0,0,0.001,0.001,0.001h6.141c1.669,3.63,5.328,6.156,9.585,6.156h8.415C151.089,355.766,144.902,350.336,140.704,343.547z"
							/>
					</g>
					<g>
						<path style="fill:#121D21;" d="M150.164,359.027h8.282c-7.357-3.262-13.544-8.691-17.742-15.481
							c-0.176,0.333-0.336,0.678-0.477,1.031H138.5C141.467,350.093,145.44,354.987,150.164,359.027z"/>
						<path style="fill:#121D21;" d="M218.568,337.918c-4.877,10.193-13.98,17.986-25.029,21.109h15.613
							c0.2-0.191,0.403-0.378,0.6-0.572c0.216-0.214,0.424-0.434,0.636-0.652c0.062-0.063,0.124-0.126,0.185-0.189
							c0.237-0.246,0.475-0.491,0.707-0.742c0.26-0.28,0.515-0.564,0.769-0.85c0.153-0.172,0.302-0.348,0.452-0.522
							c0.082-0.095,0.165-0.188,0.245-0.283c0.123-0.145,0.244-0.291,0.366-0.437c0.116-0.14,0.236-0.278,0.351-0.419
							c0.25-0.308,0.494-0.623,0.737-0.937c0.167-0.216,0.338-0.43,0.502-0.649c0.033-0.044,0.068-0.087,0.101-0.131
							c0.407-0.548,0.803-1.105,1.188-1.67c0.017-0.025,0.032-0.05,0.049-0.074c0.161-0.237,0.315-0.48,0.473-0.72
							c0.046-0.07,0.09-0.141,0.135-0.211c0.186-0.285,0.372-0.57,0.551-0.859c0.173-0.279,0.34-0.561,0.508-0.843
							c0.216-0.365,0.428-0.732,0.635-1.103c0.155-0.277,0.31-0.554,0.459-0.835c0.224-0.419,0.439-0.843,0.651-1.269
							c0.031-0.063,0.063-0.126,0.095-0.189c0.086-0.174,0.176-0.345,0.26-0.52c0.31-0.649,0.608-1.304,0.891-1.968
							c0.09-0.21,0.171-0.425,0.258-0.637c0.197-0.481,0.391-0.965,0.574-1.454c0.1-0.267,0.194-0.536,0.289-0.804
							c0.022-0.061,0.041-0.124,0.063-0.185c0.138-0.394,0.274-0.789,0.402-1.188c0.021-0.066,0.042-0.132,0.063-0.198H218.568z"/>
					</g>
					<g>
						<rect x="77.003" y="336.672" style="fill:#FFFFFF;" width="67.158" height="3.663"/>
						
							<ellipse transform="matrix(0.2298 -0.9732 0.9732 0.2298 -265.9339 329.6902)" style="fill:#FFFFFF;" cx="75.324" cy="332.856" rx="11.447" ry="11.447"/>
						<circle style="fill:#FFFFFF;" cx="33.044" cy="351.324" r="7.021"/>
						<path style="fill:#FFFFFF;" d="M21.75,335.909c0,1.939-1.572,3.51-3.51,3.51s-3.511-1.572-3.511-3.51s1.572-3.511,3.511-3.511
							S21.75,333.97,21.75,335.909z"/>
						<circle style="fill:#FFFFFF;" cx="64.334" cy="348.424" r="15.721"/>
						
							<ellipse transform="matrix(0.1602 -0.9871 0.9871 0.1602 -281.7839 332.0724)" style="fill:#FFFFFF;" cx="54.26" cy="331.635" rx="15.721" ry="15.721"/>
					</g>
					<rect x="235.096" y="284.768" style="fill:#39424B;" width="5.026" height="19.601"/>
					
						<rect x="254.964" y="267.554" transform="matrix(6.123234e-17 -1 1 6.123234e-17 -18.636 538.0839)" style="fill:#39424B;" width="9.519" height="21.612"/>
					<polygon style="fill:#39424B;" points="306.046,312.663 281.505,312.663 276.657,280.245 310.893,280.245 					"/>
					<polygon style="fill:#223138;" points="280.716,307.385 281.505,312.662 306.045,312.662 306.835,307.385 					"/>
					<path style="fill:#121D21;" d="M286.292,302.22l-1.231-8.232c-0.412-2.753,1.721-5.228,4.504-5.228h6.164
						c2.783,0,4.916,2.475,4.504,5.228l-1.231,8.232c-0.334,2.23-2.249,3.881-4.504,3.881h-3.702
						C288.541,306.101,286.625,304.451,286.292,302.22z"/>
					<path style="fill:#223138;" d="M290.634,289.92c0,6.801,5.513,12.314,12.314,12.314c1.67,0,3.261-0.336,4.713-0.939
						l3.232-21.616h-20.259V289.92z"/>
					<path style="fill:#223138;" d="M287.42,301.243l-1.231-8.231c-0.412-2.753,1.721-5.228,4.504-5.228h6.164
						c2.783,0,4.916,2.475,4.504,5.228l-1.231,8.231c-0.333,2.23-2.249,3.881-4.504,3.881h-3.702
						C289.669,305.124,287.754,303.473,287.42,301.243z"/>
					<path style="fill:#121D21;" d="M296.857,287.784h-6.164c-0.02,0-0.039,0.003-0.059,0.003v2.698
						c0,5.707,3.887,10.492,9.154,11.889c0.155-0.357,0.282-0.731,0.342-1.132l1.231-8.231
						C301.773,290.258,299.641,287.784,296.857,287.784z"/>
					<rect x="105.928" y="309.039" style="fill:#39424B;" width="4.421" height="21.195"/>
					<path style="fill:#9C9A9C;" d="M105.614,334.149L105.614,334.149c-1.145,0-2.073-0.928-2.073-2.073v-24.879
						c0-1.145,0.928-2.073,2.073-2.073l0,0c1.145,0,2.073,0.928,2.073,2.073v24.879C107.687,333.22,106.759,334.149,105.614,334.149
						z"/>
					<path style="fill:#39424B;" d="M135.833,273.46h-4.272v-12.691c0-1.18,0.956-2.136,2.136-2.136l0,0
						c1.18,0,2.136,0.956,2.136,2.136V273.46z"/>
					<g>
						<path style="fill:#223138;" d="M315.606,342.819h-71.558c-8.608,0-15.611-7.003-15.611-15.611v-69.831
							c0-1.249,1.013-2.262,2.262-2.262c1.249,0,2.262,1.012,2.262,2.262v69.831c0,6.114,4.974,11.088,11.088,11.088h71.558
							c4.932,0,9.317-3.313,10.665-8.057l20.478-72.074c1.402-4.934,1.023-10.233-1.066-14.918l-17.807-39.933
							c-0.808-1.811-2.611-2.982-4.594-2.982h-3.937c-1.249,0-2.262-1.012-2.262-2.262c0-1.249,1.013-2.262,2.262-2.262h3.937
							c3.767,0,7.192,2.223,8.726,5.663l17.807,39.932c2.52,5.652,2.977,12.044,1.285,17.997l-20.478,72.074
							C328.724,338.154,322.549,342.819,315.606,342.819z"/>
					</g>
					
						<rect x="329.012" y="228.503" transform="matrix(0.9263 -0.3768 0.3768 0.9263 -64.2747 144.6008)" style="fill:#223138;" width="16.996" height="16.209"/>
					<circle style="fill:#223138;" cx="174.973" cy="322.746" r="5.748"/>
					<g>
						<path style="fill:#9C9A9C;" d="M113.812,328.023c-2.915,0-5.277-2.363-5.277-5.277c0-36.426,29.635-66.061,66.061-66.061
							c8.286,0,16.375,1.523,24.04,4.527c2.714,1.064,4.051,4.126,2.988,6.84c-1.064,2.712-4.125,4.048-6.839,2.988
							c-6.433-2.522-13.225-3.8-20.188-3.8c-30.606,0-55.506,24.9-55.506,55.506C119.09,325.661,116.727,328.023,113.812,328.023z"
							/>
					</g>
					<g>
						<path style="fill:#7F747F;" d="M112.807,326.013c0,0.645-0.122,1.261-0.334,1.833c0.428,0.112,0.875,0.178,1.339,0.178
							c2.915,0,5.277-2.362,5.277-5.277c0-20.109,10.75-37.754,26.805-47.492C126.427,283.886,112.807,303.383,112.807,326.013z"/>
						<path style="fill:#7F747F;" d="M198.635,261.212c-7.665-3.004-15.753-4.527-24.039-4.527c-12.193,0-23.622,3.324-33.437,9.109
							c8.287-3.752,17.482-5.842,27.154-5.842c8.287,0,16.375,1.523,24.04,4.527c2.683,1.052,4.017,4.057,3.019,6.748
							c2.555,0.671,5.264-0.657,6.252-3.175C202.687,265.338,201.349,262.276,198.635,261.212z"/>
					</g>
					<g>
						<path style="fill:#9C9A9C;" d="M304.99,342.693H143.56c-2.29,0-4.146-1.857-4.146-4.146c0-2.29,1.856-4.146,4.146-4.146
							h161.43c3.865,0,7.273-2.302,8.717-5.877l12.881-40.989c0.028-0.088,0.058-0.174,0.091-0.26
							c0.414-1.065,0.282-2.216-0.363-3.159c-0.645-0.943-1.67-1.483-2.812-1.483h-10.568c-2.29,0-4.146-1.857-4.146-4.146
							c0-2.29,1.856-4.146,4.146-4.146h10.568c3.865,0,7.476,1.905,9.658,5.095c2.153,3.148,2.635,7.139,1.301,10.704
							l-12.889,41.016c-0.028,0.088-0.058,0.174-0.092,0.261C318.815,338.266,312.342,342.693,304.99,342.693z"/>
					</g>
					<path style="fill:#C1C1C1;" d="M333.162,279.434c-2.182-3.19-5.792-5.095-9.658-5.095h-10.568
						c-1.871,0-3.451,1.239-3.967,2.941c0.306-0.072,0.624-0.114,0.952-0.114h10.568c3.865,0,7.475,1.905,9.658,5.095
						c2.153,3.148,2.635,7.138,1.301,10.704l-12.889,41.016c-0.028,0.088-0.058,0.174-0.092,0.261
						c-0.727,1.869-1.746,3.549-2.981,5.017c2.636-1.942,4.741-4.62,5.996-7.844c0.034-0.086,0.064-0.173,0.092-0.261l12.889-41.016
						C335.797,286.573,335.315,282.582,333.162,279.434z"/>
					<path style="fill:#9C9A9C;" d="M214.49,278.36L214.49,278.36c0-6.801,5.513-12.314,12.314-12.314h16.335
						c6.801,0,12.314,5.513,12.314,12.314l0,0c0,6.801-5.513,12.314-12.314,12.314h-16.335
						C220.003,290.674,214.49,285.161,214.49,278.36z"/>
					<path style="fill:#51585E;" d="M254.164,278.322c0-6.587-5.34-11.926-11.926-11.926h-15.821
						c-6.587,0-11.926,5.34-11.926,11.926l0,0c0,1.471,0.279,2.873,0.766,4.174c8.369,3.001,19.453,5.039,34.074,5.399
						C252.258,285.721,254.164,282.249,254.164,278.322L254.164,278.322z"/>
					
						<rect x="283.912" y="269.125" transform="matrix(6.123234e-17 -1 1 6.123234e-17 17.8655 574.5854)" style="fill:#39424B;" width="24.628" height="18.471"/>
					<path style="fill:#9C9A9C;" d="M307.471,298.841L307.471,298.841c-6.801,0-12.314-5.513-12.314-12.314v-16.335
						c0-6.801,5.513-12.314,12.314-12.314l0,0c6.801,0,12.314,5.513,12.314,12.314v16.335
						C319.785,293.328,314.272,298.841,307.471,298.841z"/>
					<path style="fill:#C1C1C1;" d="M307.974,268.496v16.334c0,5.008,2.993,9.308,7.284,11.232c2.762-2.258,4.527-5.69,4.527-9.536
						v-16.335c0-5.007-2.994-9.308-7.285-11.232C309.738,261.218,307.974,264.65,307.974,268.496z"/>
					<path style="fill:#9C9A9C;" d="M282.525,298.527h-14.793c-5.131,0-9.291-4.16-9.291-9.291v-22.38
						c0-5.131,4.16-9.291,9.291-9.291h14.793c5.132,0,9.291,4.16,9.291,9.291v22.38
						C291.816,294.367,287.656,298.527,282.525,298.527z"/>
					<path style="fill:#51585E;" d="M267.731,298.527h14.793c1.229,0,2.399-0.244,3.473-0.677
						c-0.29-10.205-1.168-27.84-12.268-40.284h-5.999c-5.131,0-9.291,4.16-9.291,9.291v22.379c0,0.939,0.142,1.844,0.401,2.699
						c0.028-0.018,0.056-0.035,0.084-0.054c-0.007,0.086-0.011,0.171-0.017,0.257C260.128,295.846,263.614,298.527,267.731,298.527z
						"/>
					<path style="fill:#223138;" d="M308.808,325.982h-38.107c-2.732,0-4.946-2.214-4.946-4.946v-7.95
						c0-2.732,2.214-4.946,4.946-4.946h38.107c2.732,0,4.946,2.214,4.946,4.946v7.95
						C313.754,323.767,311.539,325.982,308.808,325.982z"/>
					<path style="fill:#39424B;" d="M308.808,308.139h-33.252v6.865c0,2.731,2.214,4.946,4.946,4.946h33.252v-6.865
						C313.754,310.353,311.539,308.139,308.808,308.139z"/>
					<path style="fill:#39424B;" d="M274.677,322.212c-2.845,0-5.152-2.306-5.152-5.152l0,0c0-2.845,2.307-5.152,5.152-5.152h30.156
						c2.845,0,5.152,2.306,5.152,5.152l0,0c0,2.845-2.306,5.152-5.152,5.152H274.677z"/>
					<path style="fill:#51585E;" d="M309.984,317.06c0-2.845-2.307-5.152-5.152-5.152h-29.276v3.096
						c0,2.731,2.214,4.946,4.946,4.946h28.595C309.657,319.126,309.984,318.132,309.984,317.06z"/>
					<path style="fill:#1E0101;" d="M287.308,332.515h-9.549c-1.457,0-2.639-1.181-2.639-2.639l0,0c0-1.457,1.181-2.639,2.639-2.639
						h9.549c1.457,0,2.639,1.181,2.639,2.639l0,0C289.947,331.334,288.766,332.515,287.308,332.515z"/>
					<g>
						<path style="fill:#39424B;" d="M237.735,326.484L237.735,326.484c-5.413,0-9.801-4.388-9.801-9.801v-9.801
							c0-5.413,4.388-9.801,9.801-9.801h0c5.413,0,9.801,4.388,9.801,9.801v9.801C247.536,322.096,243.148,326.484,237.735,326.484z
							"/>
						<path style="fill:#39424B;" d="M227.934,316.683L227.934,316.683c0-5.413,4.388-9.801,9.801-9.801h9.801
							c5.413,0,9.801,4.388,9.801,9.801l0,0c0,5.413-4.388,9.801-9.801,9.801h-9.801
							C232.322,326.484,227.934,322.096,227.934,316.683z"/>
					</g>
					<path style="fill:#223138;" d="M252.185,316.683c0,2.637-2.138,4.775-4.775,4.775c-2.637,0-4.775-2.138-4.775-4.775
						c0-2.637,2.138-4.775,4.775-4.775C250.047,311.909,252.185,314.046,252.185,316.683z"/>
					<path style="fill:#BDBEBD;" d="M247.41,318.443c-0.97,0-1.759-0.789-1.759-1.76c0-0.97,0.789-1.759,1.759-1.759
						c0.97,0,1.759,0.789,1.759,1.759C249.169,317.653,248.38,318.443,247.41,318.443z"/>
					<path style="fill:#223138;" d="M278.572,316.683c0,2.637-2.138,4.775-4.775,4.775c-2.637,0-4.775-2.138-4.775-4.775
						c0-2.637,2.138-4.775,4.775-4.775C276.434,311.909,278.572,314.046,278.572,316.683z"/>
					<path style="fill:#BDBEBD;" d="M273.797,318.443c-0.97,0-1.759-0.789-1.759-1.76c0-0.97,0.789-1.759,1.759-1.759
						c0.97,0,1.759,0.789,1.759,1.759C275.556,317.653,274.767,318.443,273.797,318.443z"/>
					<path style="fill:none;stroke:#BDBEBD;stroke-width:0.7539;stroke-miterlimit:10;" d="M273.797,321.458
						c2.637,0,4.775-2.138,4.775-4.775c0-2.637-2.138-4.775-4.775-4.775H247.41c-2.637,0-4.775,2.138-4.775,4.775
						c0,2.637,2.138,4.775,4.775,4.775H273.797z"/>
					<g>
						<path style="fill:#39424B;" d="M287.442,265.983h-24.628c-0.833,0-1.508-0.675-1.508-1.508v0c0-0.833,0.675-1.508,1.508-1.508
							h24.628c0.833,0,1.508,0.675,1.508,1.508v0C288.949,265.308,288.274,265.983,287.442,265.983z"/>
						<path style="fill:#39424B;" d="M287.442,272.768h-24.628c-0.833,0-1.508-0.675-1.508-1.508l0,0
							c0-0.833,0.675-1.508,1.508-1.508h24.628c0.833,0,1.508,0.675,1.508,1.508l0,0
							C288.949,272.093,288.274,272.768,287.442,272.768z"/>
						<path style="fill:#39424B;" d="M287.442,279.554h-24.628c-0.833,0-1.508-0.675-1.508-1.508l0,0
							c0-0.833,0.675-1.508,1.508-1.508h24.628c0.833,0,1.508,0.675,1.508,1.508l0,0
							C288.949,278.879,288.274,279.554,287.442,279.554z"/>
						<path style="fill:#39424B;" d="M287.442,286.339h-24.628c-0.833,0-1.508-0.675-1.508-1.508l0,0
							c0-0.833,0.675-1.508,1.508-1.508h24.628c0.833,0,1.508,0.675,1.508,1.508l0,0
							C288.949,285.664,288.274,286.339,287.442,286.339z"/>
						<path style="fill:#39424B;" d="M287.442,293.124h-24.628c-0.833,0-1.508-0.675-1.508-1.508l0,0
							c0-0.833,0.675-1.508,1.508-1.508h24.628c0.833,0,1.508,0.675,1.508,1.508l0,0
							C288.949,292.449,288.274,293.124,287.442,293.124z"/>
					</g>
					<rect x="308.041" y="219.554" style="fill:#39424B;" width="10.014" height="4.365"/>
					<g>
						<path style="fill:#C1C1C1;" d="M316.64,216.28h-7.184v-0.827c0-0.926,0.751-1.676,1.677-1.676h3.831
							c0.926,0,1.676,0.751,1.676,1.676V216.28z"/>
						<path style="fill:#C1C1C1;" d="M321.522,220.453h-16.947v-1.951c0-2.184,1.771-3.955,3.955-3.955h9.038
							c2.184,0,3.955,1.771,3.955,3.955V220.453z"/>
						<path style="fill:#9C9A9C;" d="M313.056,219.51v-1.951c0-1.214,0.559-2.287,1.42-3.013h-5.947
							c-2.184,0-3.955,1.771-3.955,3.955v1.951h16.947v-0.942H313.056z"/>
					</g>
					<path style="fill:#E23B37;" d="M319.962,260.802h-74.688v0c0-21.595,17.506-39.101,39.101-39.101h35.587
						c10.797,0,19.55,8.753,19.55,19.55l0,0C339.512,252.049,330.759,260.802,319.962,260.802z"/>
					<path style="fill:#7F747F;" d="M291.796,266.456c-0.21-4.945-4.275-8.891-9.271-8.891h-14.793c-4.996,0-9.06,3.947-9.271,8.891
						H291.796z"/>
					<path style="fill:#7F747F;" d="M295.738,266.456h23.466c-1.582-4.973-6.236-8.577-11.733-8.577
						C301.974,257.879,297.321,261.483,295.738,266.456z"/>
					<path style="fill:#9C9A9C;" d="M319.202,266.456c-0.014-0.044-0.031-0.087-0.045-0.132c-0.079-0.24-0.164-0.477-0.258-0.71
						c-0.036-0.091-0.077-0.179-0.115-0.268c-0.082-0.191-0.166-0.38-0.257-0.565c-0.055-0.112-0.113-0.221-0.171-0.331
						c-0.082-0.156-0.167-0.31-0.256-0.462c-0.074-0.126-0.149-0.25-0.228-0.372c-0.081-0.127-0.163-0.252-0.248-0.376
						c-0.094-0.137-0.19-0.273-0.289-0.406c-0.074-0.099-0.15-0.194-0.226-0.29c-0.119-0.149-0.238-0.298-0.364-0.441
						c-0.057-0.066-0.118-0.129-0.177-0.194c-0.15-0.165-0.302-0.328-0.461-0.485c-0.023-0.023-0.048-0.044-0.071-0.066
						c-1.024-0.991-2.217-1.807-3.535-2.398c-2.261,1.849-3.835,4.491-4.338,7.496H319.202z"/>
					<path style="fill:#BF2121;" d="M309.305,252.886c-10.797,0-19.55-8.753-19.55-19.55v0c0-4.359,1.428-8.383,3.84-11.634h-11.858
						c-21.595,0-39.101,17.506-39.101,39.101l0,0h74.688c6.439,0,12.149-3.114,15.711-7.916H309.305z"/>
					<path style="fill:#1E0101;" d="M227.306,259.889h-26.198c-4.892,0-8.858-3.966-8.858-8.858v0c0-4.892,3.966-8.858,8.858-8.858
						h26.198V259.889z"/>
					<g>
						<path style="fill:#E23B37;" d="M117.236,253.313v21.863c-6.037,0-10.932-4.894-10.932-10.932l0,0
							C106.305,258.207,111.199,253.313,117.236,253.313z"/>
						<path style="fill:#BF2121;" d="M107.631,260.325l4.535,13.658c1.441,0.758,3.08,1.192,4.822,1.192v-20.76
							C112.858,254.416,109.302,256.834,107.631,260.325z"/>
						<path style="fill:#51585E;" d="M116.945,276.347h-2.547c-1.104,0-2.038-0.82-2.18-1.915l-2.575-19.808
							c-0.171-1.316,0.853-2.482,2.18-2.482h5.122c6.684,0,12.103,5.418,12.103,12.102l0,0
							C129.048,270.928,123.629,276.347,116.945,276.347z"/>
						<path style="fill:#39424B;" d="M110.153,258.55h3.965c6.684,0,12.103,5.419,12.103,12.103c0,0.498-0.039,0.986-0.097,1.467
							c1.819-2.117,2.925-4.865,2.925-7.876c0-6.684-5.419-12.102-12.103-12.102h-5.122c-1.327,0-2.351,1.166-2.18,2.482
							L110.153,258.55z"/>
						<rect x="123.016" y="263.113" style="fill:#39424B;" width="11.057" height="2.262"/>
						<circle style="fill:#39424B;" cx="123.393" cy="264.244" r="3.141"/>
					</g>
					<g>
						<path style="fill:#39424B;" d="M194.763,251.722L194.763,251.722c0,1.18-0.956,2.136-2.136,2.136h-64.207
							c-1.18,0-2.136-0.956-2.136-2.136l0,0c0-1.18,0.956-2.136,2.136-2.136h64.207
							C193.806,249.586,194.763,250.542,194.763,251.722z"/>
						<path style="fill:#39424B;" d="M143.494,268.434L143.494,268.434c-0.623,0-1.128-0.505-1.128-1.128v-14.33
							c0-0.623,0.505-1.128,1.128-1.128l0,0c0.623,0,1.128,0.505,1.128,1.128v14.33
							C144.622,267.929,144.117,268.434,143.494,268.434z"/>
						<path style="fill:#39424B;" d="M173.65,263.784L173.65,263.784c-0.623,0-1.128-0.505-1.128-1.128v-9.681
							c0-0.623,0.505-1.128,1.128-1.128l0,0c0.623,0,1.128,0.505,1.128,1.128v9.681C174.778,263.28,174.273,263.784,173.65,263.784z
							"/>
					</g>
					<g>
						<path style="fill:#9C9A9C;" d="M175.038,326.987c-0.319,0-0.643-0.04-0.966-0.126c-2.013-0.533-3.213-2.596-2.68-4.609
							l14.827-56.04c0.533-2.011,2.595-3.211,4.608-2.68c2.013,0.533,3.213,2.596,2.68,4.609l-14.827,56.04
							C178.233,325.871,176.707,326.987,175.038,326.987z"/>
					</g>
					<path style="fill:#9C9A9C;" d="M195.977,267.523c0,3.494-2.832,6.326-6.326,6.326s-6.326-2.832-6.326-6.326
						c0-3.494,2.832-6.327,6.326-6.327S195.977,264.029,195.977,267.523z"/>
					<path style="fill:#39424B;" d="M189.65,270.833c-1.826,0-3.311-1.485-3.311-3.311c0-1.826,1.485-3.311,3.311-3.311
						c1.826,0,3.311,1.485,3.311,3.311C192.961,269.348,191.476,270.833,189.65,270.833z"/>
					<path style="fill:#9C9A9C;" d="M182.932,313.477l-9.959-2.402c-1.493-0.36-2.411-1.862-2.051-3.355l0,0
						c0.36-1.493,1.862-2.411,3.355-2.051l9.959,2.402c1.493,0.36,2.411,1.862,2.051,3.355l0,0
						C185.927,312.919,184.425,313.837,182.932,313.477z"/>
					<path style="fill:#9C9A9C;" d="M190.99,283.018l-9.959-2.402c-1.493-0.36-2.411-1.862-2.051-3.355l0,0
						c0.36-1.493,1.862-2.411,3.355-2.051l9.959,2.402c1.493,0.36,2.411,1.862,2.051,3.355l0,0
						C193.985,282.46,192.482,283.378,190.99,283.018z"/>
					<g>
						<path style="fill:#223138;" d="M182.978,306.35l-6.413-1.547c-0.961-0.232-1.553-1.199-1.321-2.16l0,0
							c0.232-0.961,1.199-1.553,2.16-1.321l6.413,1.547c0.961,0.232,1.553,1.199,1.321,2.16l0,0
							C184.906,305.99,183.939,306.582,182.978,306.35z"/>
						<path style="fill:#223138;" d="M183.983,301.575l-6.413-1.547c-0.961-0.232-1.553-1.199-1.321-2.16l0,0
							c0.232-0.961,1.199-1.553,2.16-1.321l6.413,1.547c0.961,0.232,1.553,1.199,1.321,2.16l0,0
							C185.911,301.215,184.944,301.807,183.983,301.575z"/>
						<path style="fill:#223138;" d="M185.365,296.989l-6.413-1.547c-0.961-0.232-1.553-1.199-1.321-2.16l0,0
							c0.232-0.961,1.199-1.553,2.16-1.321l6.413,1.547c0.961,0.232,1.553,1.199,1.321,2.161l0,0
							C187.294,296.629,186.326,297.22,185.365,296.989z"/>
						<path style="fill:#223138;" d="M186.559,292.277l-6.413-1.547c-0.961-0.232-1.553-1.199-1.321-2.16l0,0
							c0.232-0.961,1.199-1.553,2.16-1.321l6.413,1.547c0.961,0.232,1.553,1.199,1.321,2.16l0,0
							C188.487,291.917,187.52,292.509,186.559,292.277z"/>
						<path style="fill:#223138;" d="M187.815,287.565l-6.413-1.547c-0.961-0.232-1.553-1.199-1.321-2.16l0,0
							c0.232-0.961,1.199-1.553,2.16-1.321l6.413,1.547c0.961,0.232,1.553,1.199,1.321,2.161l0,0
							C189.744,287.205,188.777,287.797,187.815,287.565z"/>
					</g>
					<path style="fill:#260202;" d="M189.657,221.555l1.054,14.882l1.054,14.882c0.01,0.14,0.036,0.274,0.074,0.403h3.67
						c0.063-0.213,0.095-0.439,0.079-0.674l-1.054-14.881l-1.054-14.882c-0.012-0.166-0.05-0.322-0.101-0.473h-3.626
						C189.674,221.044,189.639,221.296,189.657,221.555z"/>
					<g>
						<path style="fill:#F2A300;" d="M378.904,208.562v29.777c8.223,0,14.889-6.666,14.889-14.889l0,0
							C393.793,215.228,387.127,208.562,378.904,208.562z"/>
						<g>
							<path style="fill:#FFC255;" d="M378.904,208.562v0.66c7.125,0.54,13.029,6.144,13.69,13.496
								c0.534,5.931-2.498,11.349-7.317,14.173c5.03-2.39,8.515-7.501,8.515-13.44C393.793,215.228,387.127,208.562,378.904,208.562
								z"/>
						</g>
						<path style="fill:#FFC255;" d="M389.176,222.229h-8.921c-0.833,0-1.508-0.675-1.508-1.508l0,0
							c0-0.833,0.675-1.508,1.508-1.508h8.921c0.833,0,1.508,0.675,1.508,1.508l0,0
							C390.683,221.554,390.008,222.229,389.176,222.229z"/>
						<path style="fill:#FFC255;" d="M389.176,228.135h-8.921c-0.833,0-1.508-0.675-1.508-1.508l0,0
							c0-0.833,0.675-1.508,1.508-1.508h8.921c0.833,0,1.508,0.675,1.508,1.508l0,0C390.683,227.46,390.008,228.135,389.176,228.135
							z"/>
						<path style="fill:#C1C1C1;" d="M379.301,239.934h3.469c1.504,0,2.775-1.116,2.969-2.608l3.507-26.979
							c0.233-1.792-1.162-3.38-2.969-3.38h-6.976c-9.104,0-16.484,7.38-16.484,16.484l0,0
							C362.818,232.554,370.198,239.934,379.301,239.934z"/>
						<path style="fill:#9C9A9C;" d="M371.535,232.291L371.535,232.291c-5.135-7.803-3.973-17.917,2.245-24.373
							c-6.387,2.271-10.962,8.366-10.962,15.533c0,9.104,7.38,16.483,16.483,16.483h1.893
							C377.37,238.542,373.944,235.952,371.535,232.291z"/>
						<path style="fill:#9C9A9C;" d="M365.486,224.958c0,2.363,1.915,4.278,4.278,4.278c2.363,0,4.278-1.915,4.278-4.278
							s-1.916-4.278-4.278-4.278C367.402,220.68,365.486,222.596,365.486,224.958z"/>
						
							<rect x="355.972" y="221.911" transform="matrix(-1 -1.224647e-16 1.224647e-16 -1 727.0044 446.9014)" style="fill:#39424B;" width="15.06" height="3.08"/>
						<path style="fill:#39424B;" d="M366.24,223.451c0,2.363,1.915,4.278,4.278,4.278c2.363,0,4.278-1.915,4.278-4.278
							s-1.915-4.278-4.278-4.278C368.156,219.172,366.24,221.088,366.24,223.451z"/>
						<g>
							<path style="fill:#223138;" d="M399.259,365.436c-23.539,0-42.69-19.151-42.69-42.69c0-23.539,19.151-42.69,42.69-42.69
								c23.539,0,42.69,19.151,42.69,42.69C441.948,346.285,422.798,365.436,399.259,365.436z M399.259,290.611
								c-17.719,0-32.135,14.415-32.135,32.135c0,17.72,14.416,32.135,32.135,32.135s32.135-14.415,32.135-32.135
								C431.394,305.026,416.978,290.611,399.259,290.611z"/>
						</g>
						<path style="fill:#121D21;" d="M376.177,295.375c0.233-0.035,0.464-0.087,0.695-0.145l1.906,2.772
							c1.353-1.122,2.803-2.128,4.328-3.019l-1.888-2.745c1.683-2.406,1.855-5.661,0.238-8.277
							c-4.612,2.125-8.788,5.039-12.339,8.584C370.834,294.747,373.555,295.77,376.177,295.375z"/>
						<g>
							<path style="fill:#121D21;" d="M360.85,304.129l9.244,5.146c0.745-1.605,1.613-3.142,2.602-4.591l-9.24-5.144
								C362.499,301.011,361.623,302.54,360.85,304.129z"/>
							<path style="fill:#121D21;" d="M388.764,292.38c1.648-0.571,3.356-1.012,5.112-1.309l-2.675-10.241
								c-1.743,0.335-3.449,0.775-5.111,1.315L388.764,292.38z"/>
						</g>
						<g>
							<path style="fill:#39424B;" d="M376.547,300.034c-5.666,6.249-8.724,14.525-8.544,22.712
								c0.147,8.19,3.557,16.198,9.343,21.913c5.717,5.784,13.724,9.193,21.913,9.34c8.186,0.179,16.461-2.876,22.712-8.54
								c-2.797,3.159-6.331,5.676-10.206,7.485c-3.899,1.768-8.185,2.743-12.507,2.82c-4.323,0.104-8.672-0.73-12.705-2.343
								c-4.028-1.636-7.717-4.099-10.807-7.163c-3.061-3.092-5.528-6.777-7.16-10.808c-1.614-4.033-2.445-8.382-2.342-12.704
								c0.077-4.321,1.052-8.607,2.819-12.505C370.872,306.366,373.389,302.831,376.547,300.034z"/>
						</g>
						
							<ellipse transform="matrix(0.2298 -0.9732 0.9732 0.2298 -6.5845 637.1721)" style="fill:#39424B;" cx="399.259" cy="322.746" rx="13.288" ry="13.288"/>
						<path style="fill:#223138;" d="M400.264,335.028c-7.327,0-13.288-5.961-13.288-13.288c0-3.408,1.301-6.511,3.418-8.865
							c-2.707,2.434-4.423,5.951-4.423,9.87c0,7.327,5.961,13.288,13.287,13.288c3.919,0,7.436-1.715,9.87-4.422
							C406.774,333.728,403.672,335.028,400.264,335.028z"/>
						<path style="fill:#4F575E;" d="M399.259,309.458c-3.839,0-7.292,1.646-9.72,4.258c2.373-2.206,5.542-3.567,9.03-3.567
							c7.327,0,13.288,5.961,13.288,13.288c0,3.488-1.361,6.656-3.567,9.029c2.612-2.428,4.258-5.881,4.258-9.721
							C412.546,315.419,406.586,309.458,399.259,309.458z"/>
						<path style="fill:#223138;" d="M398.687,309.487c-1.827,0.078-3.557,0.525-5.122,1.271l1.694,6.487l-5.928-3.301
							c-1.168,1.316-2.079,2.86-2.654,4.562l10.562,5.88c0.557,0.31,1.176,0.393,1.758,0.286c0.254,0.024,0.512,0.023,0.773-0.031
							c0.047-0.01,0.093-0.021,0.14-0.032c1.41-0.368,2.254-1.81,1.886-3.22L398.687,309.487z"/>
						<g>
							<path style="fill:#39424B;" d="M399.259,372.975c-27.696,0-50.229-22.532-50.229-50.229
								c0-27.696,22.533-50.229,50.229-50.229c27.696,0,50.229,22.532,50.229,50.229
								C449.488,350.442,426.955,372.975,399.259,372.975z M399.259,283.072c-21.876,0-39.674,17.798-39.674,39.674
								c0,21.876,17.798,39.674,39.674,39.674c21.876,0,39.674-17.798,39.674-39.674
								C438.933,300.87,421.135,283.072,399.259,283.072z"/>
						</g>
						<path style="fill:#223138;" d="M368.836,292.192c0.69,1.003,1.584,1.773,2.583,2.322c3.208-3.164,6.952-5.784,11.081-7.716
							c-0.163-1.097-0.569-2.174-1.24-3.15l-4.116-5.985c-4.556,2.244-8.72,5.163-12.373,8.619L368.836,292.192z"/>
						<g>
							<path style="fill:#223138;" d="M386.337,285.243c1.651-0.57,3.351-1.034,5.093-1.385l-2.817-10.203
								c-1.732,0.375-3.431,0.84-5.091,1.39L386.337,285.243z"/>
							<path style="fill:#223138;" d="M353.962,301.087l9.296,5.007c0.744-1.603,1.599-3.144,2.543-4.624l-9.306-5.012
								C355.574,297.952,354.726,299.495,353.962,301.087z"/>
						</g>
						<path style="fill:#223138;" d="M399.259,272.517c-2.368,0-4.693,0.177-6.975,0.495c-20.253,6.478-34.961,25.475-34.961,47.849
							c0,27.696,22.532,50.229,50.229,50.229c2.367,0,4.694-0.177,6.975-0.495c20.253-6.477,34.961-25.474,34.961-47.849
							C449.488,295.049,426.955,272.517,399.259,272.517z M412.141,360.261c-4.042,1.392-8.373,2.159-12.882,2.159
							c-21.876,0-39.674-17.798-39.674-39.674c0-20.323,15.364-37.117,35.085-39.4c4.042-1.392,8.373-2.159,12.882-2.159
							c21.876,0,39.674,17.798,39.674,39.674C447.226,341.185,431.862,357.979,412.141,360.261z"/>
						<g>
							<path style="fill:none;stroke:#39424B;stroke-width:0.7539;stroke-miterlimit:10;" d="M399.259,372.975
								c-27.696,0-50.229-22.532-50.229-50.229c0-27.696,22.533-50.229,50.229-50.229c27.696,0,50.229,22.532,50.229,50.229
								C449.488,350.442,426.955,372.975,399.259,372.975z M399.259,283.072c-21.876,0-39.674,17.798-39.674,39.674
								c0,21.876,17.798,39.674,39.674,39.674c21.876,0,39.674-17.798,39.674-39.674
								C438.933,300.87,421.135,283.072,399.259,283.072z"/>
						</g>
						<path style="fill:#39424B;" d="M396.474,261.565c-0.12-1.453-1.389-2.52-2.847-2.412c-1.452,0.12-2.532,1.396-2.412,2.848
							l4.553,54.982l-43.225-35.018c-1.133-0.918-2.794-0.743-3.711,0.389c-0.917,1.132-0.743,2.794,0.389,3.711l47.269,38.293
							c0.495,0.402,1.091,0.59,1.682,0.585c0.246,0.067,0.501,0.111,0.767,0.103c0.048-0.001,0.096-0.004,0.144-0.008
							c1.452-0.12,2.532-1.395,2.412-2.847L396.474,261.565z"/>
						<g>
							<path style="fill:#223138;" d="M355.497,284.358l-2.954-2.393c-1.133-0.918-2.794-0.743-3.711,0.389
								c-0.917,1.132-0.743,2.794,0.389,3.711l3.134,2.539C353.34,287.133,354.389,285.716,355.497,284.358z"/>
							<path style="fill:#223138;" d="M396.474,261.565c-0.12-1.453-1.389-2.52-2.847-2.412c-1.452,0.12-2.532,1.396-2.412,2.848
								l0.197,2.379c1.403-0.18,2.817-0.314,4.242-0.387c0.347-0.018,0.683-0.071,1.008-0.151L396.474,261.565z"/>
						</g>
						<g>
							<path style="fill:#9C9A9C;" d="M346.043,289.132c-1.017,0-2.045-0.294-2.951-0.906c-2.414-1.632-3.048-4.913-1.416-7.328
								c12.339-18.249,32.81-29.144,54.76-29.144c2.915,0,5.277,2.363,5.277,5.277c0,2.915-2.363,5.277-5.277,5.277
								c-18.441,0-35.643,9.16-46.017,24.501C349.399,288.318,347.736,289.132,346.043,289.132z"/>
						</g>
						<path style="fill:#7F747F;" d="M358.572,277.268c3.708-3.466,7.852-6.39,12.311-8.709l-6.019-8.752
							c-4.41,2.405-8.55,5.311-12.331,8.68L358.572,277.268z"/>
						<path style="fill:#7F747F;" d="M376.687,265.949l-5.583-9.136c-4.654,1.937-9.074,4.406-13.176,7.355l5.52,9.034
							C367.515,270.189,371.969,267.75,376.687,265.949z"/>
						<path style="fill:#C1C1C1;" d="M396.436,251.754c-10.097,0-19.878,2.311-28.701,6.577c0.056,0.246,0.123,0.492,0.216,0.735
							c0.391,1.021,1.064,1.851,1.898,2.435c1.387,0.971,3.217,1.259,4.917,0.608c8.628-3.302,17.766-4.368,26.633-3.295
							c0.2-0.557,0.315-1.156,0.315-1.782C401.713,254.116,399.35,251.754,396.436,251.754z"/>
						<path style="fill:#223138;" d="M399.259,328.495c-3.17,0-5.748-2.579-5.748-5.749s2.579-5.749,5.748-5.749
							c3.17,0,5.749,2.579,5.749,5.749S402.429,328.495,399.259,328.495z"/>
						<g>
							<path style="fill:#223138;" d="M399.233,326.128c-0.978,0-1.918-0.546-2.375-1.485l-53.311-109.588
								c-0.637-1.31-0.092-2.89,1.219-3.527c1.31-0.634,2.889-0.092,3.527,1.218l53.312,109.588c0.637,1.31,0.092,2.89-1.219,3.527
								C400.014,326.042,399.621,326.128,399.233,326.128z"/>
						</g>
						<path style="fill:#223138;" d="M401.494,322.191L401.479,322l-6.094-9.639l0.383,4.622l-7.594-6.152l8.723,13.797
							c0.399,0.215,0.838,0.318,1.275,0.315c0.246,0.067,0.501,0.111,0.767,0.103c0.048-0.001,0.096-0.004,0.144-0.008
							C400.535,324.918,401.615,323.643,401.494,322.191z"/>
						<g>
							<path style="fill:#9C9A9C;" d="M380.416,292.34c-2.795,0-5.48-1.56-6.785-4.242l-34.49-70.898
								c-1.821-3.745-0.263-8.256,3.482-10.078c3.744-1.821,8.256-0.263,10.077,3.481l34.49,70.898
								c1.821,3.745,0.263,8.256-3.482,10.078C382.646,292.095,381.522,292.34,380.416,292.34z"/>
						</g>
						<g>
							<path style="fill:#9C9A9C;" d="M380.416,292.34c-2.795,0-5.48-1.56-6.785-4.242l-34.49-70.898
								c-1.821-3.745-0.263-8.256,3.482-10.078c3.744-1.821,8.256-0.263,10.077,3.481l34.49,70.898
								c1.821,3.745,0.263,8.256-3.482,10.078C382.646,292.095,381.522,292.34,380.416,292.34z"/>
						</g>
						<path style="fill:#C1C1C1;" d="M387.19,281.5l-34.49-70.898c-1.1-2.261-3.183-3.717-5.484-4.121
							c-2.079,2.214-2.698,5.562-1.29,8.456l34.49,70.898c1.101,2.262,3.186,3.714,5.489,4.116
							C387.98,287.737,388.597,284.393,387.19,281.5z"/>
						<path style="fill:#C1C1C1;" d="M387.19,281.5l-34.49-70.898c-1.1-2.261-3.183-3.717-5.484-4.121
							c-2.079,2.214-2.698,5.562-1.29,8.456l34.49,70.898c1.101,2.262,3.186,3.714,5.489,4.116
							C387.98,287.737,388.597,284.393,387.19,281.5z"/>
						<path style="fill:#7F747F;" d="M382.395,269.09c-0.229-0.79-0.89-1.419-1.756-1.556l-3.121-0.493
							c-1.194-0.189-2.316,0.626-2.505,1.821l-1.14,7.216c-0.189,1.195,0.627,2.316,1.821,2.505l3.12,0.493
							c0.866,0.137,1.689-0.258,2.151-0.939c1.839-0.515,3.306-2.054,3.624-4.064l0,0
							C384.907,272.062,383.986,270.146,382.395,269.09z"/>
						<path style="fill:#9C9A9C;" d="M384.199,275.353l-3.825-7.862l-2.857-0.451c-1.194-0.189-2.316,0.626-2.505,1.821l-0.7,4.429
							l2.674,5.496l1.828,0.289c0.866,0.137,1.689-0.258,2.151-0.939C382.389,277.738,383.582,276.722,384.199,275.353z"/>
						<polygon style="fill:#7F747F;" points="339.901,218.763 342.987,225.106 356.078,217.548 352.992,211.205 						"/>
						<polygon style="fill:#9C9A9C;" points="346.057,215.209 349.143,221.552 356.078,217.548 354.836,214.995 352.992,211.205 
													"/>
						<g>
							<path style="fill:#E47D31;" d="M380.555,276.426h-1.463v-10.079h1.463c2.783,0,5.039,2.256,5.039,5.039l0,0
								C385.594,274.169,383.338,276.426,380.555,276.426z"/>
							<path style="fill:#39424B;" d="M380.672,277.229h-3.159c-1.21,0-2.19-0.98-2.19-2.19v-7.306c0-1.21,0.98-2.19,2.19-2.19
								h3.159c1.21,0,2.19,0.98,2.19,2.19v7.306C382.862,276.249,381.881,277.229,380.672,277.229z"/>
						</g>
						<path style="fill:#39424B;" d="M358.591,214.8l-21.183,8.616c-1.8,0.732-3.852-0.133-4.585-1.933l0,0
							c-0.732-1.8,0.133-3.852,1.933-4.585l21.183-8.616c1.8-0.732,3.852,0.133,4.585,1.933l0,0
							C361.257,212.015,360.391,214.068,358.591,214.8z"/>
						<path style="fill:#51585E;" d="M360.525,210.215c-0.732-1.8-2.785-2.665-4.585-1.933l-12.553,5.106
							c-0.144,0.667-0.097,1.383,0.18,2.063c0.732,1.8,2.784,2.665,4.585,1.933l12.553-5.106
							C360.848,211.611,360.801,210.895,360.525,210.215z"/>
						<g>
							<path style="fill:#121D21;" d="M431.394,322.746c-0.3-4.206-1.319-8.295-2.996-12.067c-1.692-3.764-4.046-7.215-6.96-10.112
								c-2.899-2.913-6.349-5.267-10.113-6.958c-3.772-1.676-7.86-2.696-12.066-2.998c4.206-0.288,8.525,0.354,12.518,1.911
								c4.005,1.53,7.674,3.947,10.727,6.979c3.031,3.054,5.447,6.723,6.977,10.728C431.037,314.222,431.68,318.54,431.394,322.746z
								"/>
						</g>
					</g>
					<g>
						<path style="fill:#C1C1C1;" d="M150.028,334.4h-6.469c-1.87,0-3.45,1.239-3.967,2.941c0.306-0.072,0.624-0.114,0.951-0.114
							h8.787C149.431,336.237,149.674,335.291,150.028,334.4z"/>
						<path style="fill:#C1C1C1;" d="M304.989,334.4h-51.168c0.354,0.891,0.598,1.837,0.697,2.827h47.455
							c3.182,0,6.051-1.563,7.773-4.108C308.34,333.941,306.711,334.4,304.989,334.4z"/>
					</g>
					<path style="fill:#7F747F;" d="M149.331,337.228c-0.035,0.351-0.054,0.707-0.054,1.068c0,1.572,0.353,3.058,0.969,4.398
						h103.357c0.616-1.34,0.969-2.826,0.969-4.398c0-0.36-0.019-0.716-0.054-1.068H149.331z"/>
					<path style="fill:#9C9A9C;" d="M248.918,348.85h-84.186c-5.829,0-10.555-4.726-10.555-10.555l0,0
						c0-5.829,4.725-10.555,10.555-10.555h84.186c5.829,0,10.555,4.725,10.555,10.555l0,0
						C259.473,344.124,254.747,348.85,248.918,348.85z"/>
					<path style="fill:#C1C1C1;" d="M248.918,327.74h-63.066c-0.9,1.554-1.424,3.353-1.424,5.277l0,0
						c0,5.829,4.725,10.555,10.554,10.555h63.067c0.9-1.553,1.424-3.352,1.424-5.277l0,0
						C259.473,332.466,254.747,327.74,248.918,327.74z"/>
				</g>
				<g>
					<g>
						<g>
							<path style="fill:#330404;" d="M295.566,328.781h-17.287c-3.886,0-7.036-3.15-7.036-7.036l0,0
								c0-3.886,3.15-7.036,7.036-7.036h17.287c3.886,0,7.036,3.15,7.036,7.036l0,0
								C302.602,325.631,299.452,328.781,295.566,328.781z"/>
							<path style="fill:#440908;" d="M295.566,314.708h-6.717c-0.694,1.42-1.748,2.696-3.302,3.77h5.684
								c3.886,0,7.037,3.15,7.037,7.036c0,1.061-0.241,2.062-0.661,2.964c2.891-0.875,4.996-3.557,4.996-6.734
								C302.602,317.858,299.452,314.708,295.566,314.708z"/>
							<path style="fill:#330404;" d="M298.508,312.313L298.508,312.313c4.548,0,8.234,3.687,8.234,8.234v0
								c0,4.547-3.686,8.234-8.234,8.234h-7.968v-8.5C290.54,315.88,294.108,312.313,298.508,312.313z"/>
							<path style="fill:#440908;" d="M298.508,312.313c-0.583,0-1.151,0.067-1.699,0.186c-0.395,0.945-0.615,1.982-0.615,3.071
								v0.531c0,4.401,3.568,7.969,7.968,7.969c0.651,0,1.282-0.084,1.889-0.226c0.442-1.01,0.691-2.123,0.691-3.296l0,0
								C306.743,315.999,303.056,312.313,298.508,312.313z"/>
						</g>
						<path style="fill:#B27200;" d="M196.31,236.299c0,0-14.077,40.656,59.396,47.215c-3.57,5.806,0.961,7.014,6.195,4.066
							c-2.679,17.629,0.409,34.864,13.933,32.678c13.524-2.186,13.182-10.001,12.462-17.916c-0.72-7.915,7.134-46.216-25.148-60.135
							c-32.282-13.918-65.757-9.964-65.757-9.964L196.31,236.299z"/>
						<path style="fill:#F2A300;" d="M263.148,242.208c-32.282-13.918-65.757-9.964-65.757-9.964l-1.082,4.056
							c0,0-0.904,2.618-1.057,6.628c11.813-1.795,34.774-3.716,58.275,3.005c33.799,9.667,30.917,48.659,32.646,56.417
							c1.145,5.137,2.115,10.25-1.169,14.252c4.091-3.551,3.781-8.881,3.292-14.259C287.576,294.427,295.43,256.126,263.148,242.208
							z"/>
						<path style="fill:#895400;" d="M197.391,232.244l-1.082,4.056c0,0-6.536,18.901,12.593,33.008
							c3.38,0.018,7.018-0.155,10.927-0.56c15.097-1.561,29.072-13.749,39.873-27.954
							C228.529,228.568,197.391,232.244,197.391,232.244z"/>
					</g>
					<g>
						<g>
							<path style="fill:#F6AB7D;" d="M274.193,187.3L274.193,187.3c-4.49-4.49-4.49-11.769,0-16.259l10.089-10.089
								c4.49-4.49,11.769-4.49,16.259,0l0,0c4.49,4.49,4.49,11.769,0,16.259L290.452,187.3
								C285.962,191.79,278.683,191.79,274.193,187.3z"/>
							<path style="opacity:0.5;fill:#F36449;" d="M274.193,187.3L274.193,187.3c-4.49-4.49-4.49-11.769,0-16.259l10.089-10.089
								c4.49-4.49,11.769-4.49,16.259,0l0,0c4.49,4.49,4.49,11.769,0,16.259L290.452,187.3
								C285.962,191.79,278.683,191.79,274.193,187.3z"/>
							<path style="fill:#330404;" d="M274.505,163.996c-9.439-0.669-45.781,4.013-86.527,74.784
								c-6.408,12.063,7.916,24.502,40.711,21.109c32.795-3.393,60.312-56.92,61.443-72.375c3.77,1.508,7.162-0.942,5.089-3.581
								c-2.073-2.639-13.382-30.533-16.774-23.936c-1.885,3.77-1.885,3.77-1.885,3.77s-0.283-1.979-1.319-1.225
								C274.476,163.099,275.021,164.033,274.505,163.996z"/>
							<path style="fill:#1E0101;" d="M276.61,163.668c-0.048,0.096-0.049,0.099-0.049,0.099s-0.009-0.061-0.028-0.155
								c-0.264-0.191-0.54-0.379-0.839-0.56c-0.356,0.711-0.358,0.715-0.358,0.715s-0.085-0.582-0.328-0.995
								c-0.409,0.551-0.053,1.256-0.503,1.224c-0.323-0.023-0.68-0.039-1.064-0.047c-0.037,0.032-0.086,0.052-0.161,0.047
								c-0.304-0.021-0.646-0.035-1.006-0.043c-8.126,0.194-26.317,4.112-48.967,26.886c5.138,12.734,24.043,24.867,54.725,24.73
								c3.997-7.133,7.042-13.976,8.885-19.504c-8.08-3.421-18.059-7.481-18.059-7.481S287.534,171.708,276.61,163.668z"/>
							<path style="fill:#440908;" d="M295.22,183.933c-2.073-2.638-13.382-30.533-16.774-23.936c-1.885,3.77-1.885,3.77-1.885,3.77
								s-0.262-1.814-1.198-1.297c0.065,26.96-9.321,74.428-34.56,93.918c27.201-12.79,48.34-55.367,49.328-68.873
								C293.901,189.022,297.293,186.572,295.22,183.933z"/>
							<path style="fill:#440908;" d="M295.22,183.933c-2.073-2.638-13.382-30.533-16.774-23.936c-1.885,3.77-1.885,3.77-1.885,3.77
								s-0.262-1.814-1.198-1.297c0.065,26.96-9.321,74.428-34.56,93.918c27.201-12.79,48.34-55.367,49.328-68.873
								C293.901,189.022,297.293,186.572,295.22,183.933z"/>
							<g>
								<path style="fill:#330404;" d="M266.67,215.02c3.587,0.371,7.373,0.565,11.362,0.547c3.997-7.133,7.042-13.976,8.885-19.504
									c-4.879-2.065-10.446-4.363-14.094-5.86C271.416,198.34,269.395,206.814,266.67,215.02z"/>
								<path style="fill:#330404;" d="M276.553,163.721c-0.004-0.021-0.01-0.053-0.017-0.087c-0.001-0.008-0.003-0.014-0.004-0.022
									c-0.264-0.191-0.54-0.379-0.839-0.56c-0.232,0.465-0.313,0.625-0.341,0.682c-0.047,5.768-0.51,12.391-1.451,19.445
									c4.593-5.645,9.683-14.378,2.709-19.511c-0.048,0.096-0.049,0.099-0.049,0.099s-0.003-0.016-0.006-0.037
									C276.555,163.727,276.554,163.724,276.553,163.721z"/>
							</g>
							<path style="fill:#1E0101;" d="M232.613,238.296l-7.422-6.1c-2.275-1.87-2.604-5.231-0.734-7.507l3.779-4.597l15.662,12.873
								l-3.779,4.597C238.249,239.838,234.888,240.166,232.613,238.296z"/>
							<path style="fill:#330404;" d="M282.589,161.977l-6.389,2.086c-0.063,0.126-0.064,0.128-0.064,0.128
								s-0.006-0.039-0.018-0.101l-10.954,3.577c1.852,5.671,9.981,5.498,15.467,2.408l-5.138,10.121
								c5.269,2.675,10.834-3.057,12.581-9.057C286.254,167.628,284.321,164.209,282.589,161.977z"/>
							<path style="fill:#330404;" d="M234.441,236.88l-7.874-6.472c-2.414-1.984-2.762-5.55-0.778-7.964l4.009-4.878l16.616,13.658
								l-4.009,4.877C240.421,238.515,236.855,238.864,234.441,236.88z"/>
							<g>
								<path style="fill:#121D21;" d="M326.884,198.729c0,3.383-2.742,6.126-6.125,6.126s-6.125-2.743-6.125-6.126
									s2.742-6.125,6.125-6.125S326.884,195.346,326.884,198.729z"/>
								<path style="fill:#CC6600;" d="M318.874,201.462H307c-1.509,0-2.733-1.224-2.733-2.733l0,0c0-1.509,1.224-2.733,2.733-2.733
									h11.874c1.509,0,2.733,1.224,2.733,2.733l0,0C321.607,200.238,320.383,201.462,318.874,201.462z"/>
								<g>
									<ellipse style="fill:#F6AB7D;" cx="309.576" cy="197.315" rx="14.041" ry="4.775"/>
									<path style="fill:#F6AB7D;" d="M313.66,206.425L313.66,206.425c-1.249,0-2.262-1.013-2.262-2.262v-6.031
										c0-1.249,1.013-2.262,2.262-2.262l0,0c1.249,0,2.262,1.013,2.262,2.262v6.031
										C315.921,205.412,314.909,206.425,313.66,206.425z"/>
									<path style="fill:#F6AB7D;" d="M316.11,206.425L316.11,206.425c-1.249,0-2.262-1.013-2.262-2.262v-6.031
										c0-1.249,1.013-2.262,2.262-2.262h0c1.249,0,2.262,1.013,2.262,2.262v6.031
										C318.372,205.412,317.359,206.425,316.11,206.425z"/>
									<path style="fill:#F6AB7D;" d="M318.591,206.425L318.591,206.425c-1.249,0-2.262-1.013-2.262-2.262v-6.031
										c0-1.249,1.013-2.262,2.262-2.262l0,0c1.249,0,2.262,1.013,2.262,2.262v6.031
										C320.853,205.412,319.84,206.425,318.591,206.425z"/>
									<path style="fill:#F6AB7D;" d="M321.418,206.425L321.418,206.425c-1.249,0-2.262-1.013-2.262-2.262v-6.031
										c0-1.249,1.013-2.262,2.262-2.262l0,0c1.249,0,2.262,1.013,2.262,2.262v6.031
										C323.68,205.412,322.668,206.425,321.418,206.425z"/>
								</g>
								<path style="fill:#121D21;" d="M317.712,198.729c0,3.383-2.743,6.126-6.126,6.126s-6.125-2.743-6.125-6.126
									s2.742-6.125,6.125-6.125S317.712,195.346,317.712,198.729z"/>
								<g>
									<path style="fill:#440908;" d="M270.014,156.506c-13.875-0.902-36.901,12.12-40.277,25.228
										c-4.627,17.964,22.319,37.834,67.876,25.82c4.899-0.544,11.874-16.293,3.164-18.198c-8.71-1.905-24.225-4.899-24.225-4.899
										s4.355-3.538-0.816-2.722C287.167,177.923,294.46,158.096,270.014,156.506z"/>
									<path style="fill:#330404;" d="M279.529,169.312l-5.828,9.74c1.69,1.011,3.477,1.082,5.19,0.525
										c5.947-4.385,9.152-12.947,3.704-18.346l-18.328,4.605C265.72,171.621,273.842,172.013,279.529,169.312z"/>
								</g>
								<path style="fill:#330404;" d="M247.327,171.179c1.069-4.149,4.11-8.288,8.203-11.982
									c-11.644,4.389-23.451,13.439-25.794,22.536c-4.627,17.964,22.319,37.834,67.876,25.819
									c2.374-0.264,5.229-4.096,6.558-8.194C265.362,205.697,243.087,187.64,247.327,171.179z"/>
							</g>
						</g>
						<g>
							<path style="fill:#F6AB7D;" d="M308.843,180.351L308.843,180.351c-10.651,0-19.284-8.634-19.284-19.284V147.82
								c0-10.65,8.634-19.284,19.284-19.284h0c10.65,0,19.284,8.634,19.284,19.284v13.246
								C328.128,171.717,319.494,180.351,308.843,180.351z"/>
							<path style="opacity:0.5;fill:#F36449;" d="M289.559,154.776l38.569-4.557v-2.398c0-0.832-0.059-1.65-0.161-2.454
								l-38.408,4.538V154.776z"/>
							<path style="fill:#BF2121;" d="M318.193,192.038L318.193,192.038c-11.622,0-29.958-18.025-30.932-29.998
								c-0.043-0.525,0.377-0.974,0.904-0.974h38.571c2.07,0,3.736,1.694,3.708,3.764
								C330.283,176.619,328.942,192.038,318.193,192.038z"/>
							<path style="fill:#F6AB7D;" d="M330.094,160.092h-3.544c-1.549,0-2.806-1.256-2.806-2.806l0,0
								c0-1.549,1.256-2.806,2.806-2.806h3.544c1.549,0,2.806,1.256,2.806,2.806l0,0C332.9,158.836,331.644,160.092,330.094,160.092
								z"/>
							<path style="fill:#F6AB7D;" d="M329.356,153.743v3.544c0,1.549-1.256,2.806-2.806,2.806l0,0
								c-1.549,0-2.806-1.256-2.806-2.806v-3.544c0-1.549,1.256-2.806,2.806-2.806l0,0
								C328.1,150.937,329.356,152.193,329.356,153.743z"/>
							<path style="fill:#440908;" d="M284.603,145.227h44.565v-4.538c0-12.306-9.976-22.282-22.282-22.282h0
								c-12.306,0-22.282,9.976-22.282,22.282V145.227z"/>
							<path style="fill:#7C2727;" d="M308.976,118.508c-6.458,4.861-10.635,12.589-10.635,21.295v5.425h30.827v-4.538
								C329.168,129.089,320.302,119.562,308.976,118.508z"/>
							<path style="fill:#BF2121;" d="M332.104,149.613h-43.536c-1.336,0-2.419-1.083-2.419-2.419l0,0
								c0-1.336,1.083-2.419,2.419-2.419h43.536c1.336,0,2.419,1.083,2.419,2.419l0,0
								C334.522,148.53,333.44,149.613,332.104,149.613z"/>
							<path style="fill:#E23B37;" d="M334.523,147.194c0-1.336-1.083-2.419-2.419-2.419h-11.37c-1.336,0-2.419,1.083-2.419,2.419
								c0,1.336,1.083,2.419,2.419,2.419h11.37C333.44,149.613,334.523,148.53,334.523,147.194z"/>
							<path style="fill:#440908;" d="M294.907,162.595L294.907,162.595c-5.691,0-10.304-4.613-10.304-10.304v-7.078
								c0-5.691,4.613-10.304,10.304-10.304l0,0c5.691,0,10.304,4.613,10.304,10.304v7.078
								C305.211,157.981,300.597,162.595,294.907,162.595z"/>
							<path style="fill:#7C2727;" d="M294.907,134.909c-2.536,0-4.855,0.92-6.65,2.44c0.609-0.112,1.234-0.179,1.876-0.179
								c5.691,0,10.304,4.613,10.304,10.304v7.078c0,3.154-1.421,5.974-3.654,7.864c4.794-0.883,8.428-5.076,8.428-10.125v-7.078
								C305.211,139.522,300.597,134.909,294.907,134.909z"/>
							<path style="fill:#440908;" d="M321.45,156.976L321.45,156.976c-0.861,0-1.558-0.698-1.558-1.558v-2.922
								c0-0.861,0.698-1.558,1.558-1.558l0,0c0.861,0,1.558,0.698,1.558,1.558v2.922
								C323.008,156.278,322.311,156.976,321.45,156.976z"/>
							<path style="fill:#E23B37;" d="M326.736,161.066h-23.393c1.101,9.27,12.262,21.914,22.491,26.935
								c3.837-5.367,4.501-15.115,4.61-23.171C330.472,162.76,328.806,161.066,326.736,161.066z"/>
							<g>
								<path style="fill:#E23B37;" d="M264.646,160.665h21.375C286.021,170.55,264.646,170.55,264.646,160.665z"/>
								<path style="fill:#BF2121;" d="M268.273,160.665h-3.627c0,8.863,17.172,9.773,20.726,2.744
									C280.945,167.57,269.701,166.652,268.273,160.665z"/>
								<path style="fill:#BF2121;" d="M270.575,175.781l15.115-15.115C292.68,167.657,277.565,182.771,270.575,175.781z"/>
								<circle style="fill:#E23B37;" cx="285.468" cy="160.677" r="4.675"/>
								<path style="fill:#BF2121;" d="M287.73,164.032c-2.582,0-4.675-2.093-4.675-4.675c0-1.246,0.491-2.375,1.285-3.213
									c-2.036,0.506-3.547,2.34-3.547,4.532c0,2.582,2.093,4.675,4.675,4.675c1.336,0,2.538-0.563,3.39-1.462
									C288.496,163.979,288.12,164.032,287.73,164.032z"/>
							</g>
						</g>
					</g>
				</g>
			</g>
		</g>
	</g>
</g>
</svg>
