<?xml version="1.0" encoding="iso-8859-1"?>
<!-- Uploaded to: SVG Repo, www.svgrepo.com, Generator: SVG Repo Mixer Tools -->
<svg version="1.1" id="Layer_1" xmlns="http://www.w3.org/2000/svg" xmlns:xlink="http://www.w3.org/1999/xlink" 
	 viewBox="0 0 512 512" xml:space="preserve">
<circle style="fill:#303E48;" cx="424.359" cy="394.798" r="38.163"/>
<circle style="fill:#E6E6E6;" cx="424.359" cy="394.798" r="23.334"/>
<circle style="fill:#D1D1D1;" cx="424.359" cy="394.798" r="8.041"/>
<path style="fill:#FFB04C;" d="M415.475,317.18c2.731-0.348,5.516-0.527,8.342-0.527c31.85,0,58.384,22.759,64.225,52.902
	c1.259,6.497-3.78,12.702-10.399,12.702h-88.291"/>
<circle style="fill:#303E48;" cx="73.109" cy="394.798" r="38.163"/>
<circle style="fill:#E6E6E6;" cx="73.109" cy="394.798" r="23.334"/>
<circle style="fill:#D1D1D1;" cx="73.109" cy="394.798" r="8.041"/>
<rect x="244.274" y="277.584" style="fill:#FA6657;" width="59.97" height="75.235"/>
<rect x="244.274" y="277.584" style="fill:#F44A46;" width="59.97" height="20.444"/>
<path style="fill:#303E48;" d="M296.063,281.731h-59.97V249.02h59.97c9.033,0,16.355,7.323,16.355,16.355l0,0
	C312.419,274.408,305.096,281.731,296.063,281.731z"/>
<rect x="227.919" y="111.849" style="fill:#E6E6E6;" width="16.355" height="240.97"/>
<path style="fill:#FFB04C;" d="M440.724,318.379h13.321c5.839,0,10.571-4.733,10.571-10.571v-20.482
	c0-5.839-4.733-10.571-10.571-10.571h-13.321c-11.495,0-20.813,9.318-20.813,20.813l0,0
	C419.912,309.061,429.23,318.379,440.724,318.379z"/>
<g>
	<path style="fill:#FA6657;" d="M503.758,304.344h-12.882c-4.517,0-8.178-3.661-8.178-8.178s3.66-8.178,8.178-8.178h12.882
		c4.517,0,8.178,3.661,8.178,8.178S508.274,304.344,503.758,304.344z"/>
	<path style="fill:#FA6657;" d="M489.787,279.038c-3.242,0-6.308-1.94-7.591-5.132c-1.684-4.19,0.349-8.953,4.54-10.637
		l11.954-4.802c4.195-1.684,8.953,0.349,10.638,4.54c1.684,4.19-0.349,8.953-4.54,10.637l-11.954,4.802
		C491.834,278.847,490.802,279.038,489.787,279.038z"/>
	<path style="fill:#FA6657;" d="M501.682,333.492c-1.07,0-2.159-0.212-3.206-0.659l-11.849-5.058
		c-4.154-1.773-6.084-6.578-4.31-10.732c1.773-4.152,6.578-6.082,10.731-4.31l11.849,5.058c4.154,1.773,6.084,6.578,4.31,10.732
		C507.882,331.629,504.86,333.492,501.682,333.492z"/>
</g>
<path style="fill:#303E48;" d="M396.377,111.846c18.065,0,32.711-14.645,32.711-32.711H94.76c-40.108,0-73.467,32.816-73.467,72.924
	v189.219l93.771-98.968v-97.56c0-18.172,15.274-32.903,33.446-32.903h193.35v105.765h80.162
	c-4.369-38.163-16.589-74.145-35.015-105.765L396.377,111.846L396.377,111.846z"/>
<path style="fill:#162630;" d="M387.009,111.846h-45.148v29.44h59.697C397.264,130.382,392.412,121.118,387.009,111.846z"/>
<path style="fill:#E6E6E6;" d="M403.608,192.511c-3.305-21.101-11.53-40.63-20.782-58.677c-1.016-1.982-3.064-3.22-5.29-3.226
	l-15.224-0.041c-3.307-0.009-5.993,2.669-5.993,5.975v56.908c0,3.298,2.672,5.973,5.972,5.976l35.41,0.024
	C401.385,199.452,404.178,196.153,403.608,192.511z"/>
<path style="fill:#FFDB6C;" d="M341.861,217.611v135.205H171.764v-66.811c0-24.133-20.01-43.316-44.143-43.316H21.294v139.567
	h368.06c22.464-40.343,34.464-83.98,34.464-132.873c0-10.62-0.611-21.464-1.788-31.772L341.861,217.611L341.861,217.611z"/>
<path style="fill:#E89B46;" d="M426.121,316.704c-0.765-0.026-1.531-0.051-2.303-0.051c-2.826,0-5.611,0.179-8.342,0.527
	l-26.122,65.076h12.969C413.089,361.39,421.088,339.625,426.121,316.704z"/>
<g>
	<path style="fill:#FFB04C;" d="M423.722,242.689c-0.202-8.723-0.763-16.939-1.692-25.078h-80.168v25.078H423.722z"/>
	<path style="fill:#FFB04C;" d="M167.663,267.768c-7.055-14.877-22.447-25.078-40.041-25.078H21.294v25.078H167.663z"/>
</g>
<path style="fill:#FA6657;" d="M378.926,253.657h-9.718c-4.517,0-8.178-3.661-8.178-8.178c0-4.516,3.66-8.178,8.178-8.178h9.718
	c4.517,0,8.178,3.661,8.178,8.178C387.104,249.996,383.444,253.657,378.926,253.657z"/>
<path style="fill:#FFB04C;" d="M15.229,382.256c-4.256,0-7.577-3.901-7.066-8.126c3.921-32.385,31.502-57.476,64.944-57.476
	c36.131,0,65.422,29.471,65.422,65.604H15.229V382.256z"/>
<path d="M466.881,321.942c3.985-3.441,6.52-8.517,6.52-14.182v-20.482c0-10.339-8.411-18.75-18.749-18.75h-13.321
	c-3.32,0-6.509,0.568-9.483,1.602c0.498-6.985,0.756-14.036,0.756-21.156c0-45.103-10.802-89.516-31.345-129.29
	c20.282-2.393,36.07-19.68,36.07-40.595c0-4.516-3.66-8.178-8.178-8.178H94.825c-44.719,0-81.101,36.382-81.101,81.101v186.621
	C6.509,348.491,1.666,360.24,0.11,373.099c-0.523,4.328,0.836,8.684,3.732,11.951c2.903,3.275,7.078,5.155,11.452,5.155h11.767
	c-0.147,1.505-0.229,3.019-0.229,4.544c0,25.553,20.788,46.34,46.34,46.34s46.34-20.788,46.34-46.34
	c0-1.524-0.082-3.039-0.229-4.544h19.31c4.516,0,8.178-3.661,8.178-8.178c0-7.325-1.09-14.398-3.092-21.08h28.247h170.36
	c4.517,0,8.178-3.661,8.178-8.178v-126.62h64.799c0.651,7.573,0.986,15.187,0.986,22.822c0,14.468-1.093,28.644-3.267,42.491
	c-0.18,0.844-0.319,1.701-0.424,2.57c-4.694,28.076-13.857,54.783-27.418,79.816H189.21c-4.516,0-8.178,3.661-8.178,8.178
	c0,4.516,3.661,8.178,8.178,8.178h189.106c-0.146,1.505-0.229,3.019-0.229,4.544c0,25.553,20.788,46.34,46.34,46.34
	s46.34-20.788,46.34-46.34c0-1.524-0.082-3.039-0.228-4.544h7.715c5.627,0,10.91-2.491,14.493-6.837
	c3.562-4.318,4.995-9.939,3.933-15.418C492.971,348.813,481.957,332.595,466.881,321.942z M441.332,284.884h13.321
	c1.32,0,2.393,1.074,2.393,2.394v20.482c0,1.32-1.073,2.394-2.393,2.394h-13.321c-0.591,0-1.169-0.055-1.738-0.134
	c-0.495-0.105-0.991-0.205-1.489-0.3c-5.406-1.432-9.408-6.352-9.408-12.202c0-0.39,0.024-0.774,0.059-1.156
	c0.096-0.577,0.195-1.153,0.287-1.73C430.353,289.054,435.359,284.884,441.332,284.884z M94.825,87.266h324.749
	c-3.376,9.519-12.471,16.355-23.132,16.355h-9.059c-0.001,0-0.002,0-0.004,0H148.575c-22.651,0-41.081,18.428-41.081,41.081v46.195
	c0,4.516,3.661,8.178,8.178,8.178c4.516,0,8.178-3.661,8.178-8.178v-46.195c0-13.633,11.091-24.725,24.725-24.725h79.405v128.997
	v32.711v62.907h-47.875v-58.632c0-28.604-23.271-51.874-51.874-51.874H30.079v-82.073C30.079,116.311,59.124,87.266,94.825,87.266z
	 M244.335,289.862h43.615v54.73h-43.615V289.862z M296.129,273.506h-51.792v-16.355h51.792c4.51,0,8.178,3.668,8.178,8.178
	C304.306,269.838,300.638,273.506,296.129,273.506z M103.158,394.748c0,16.534-13.451,29.985-29.985,29.985
	s-29.985-13.451-29.985-29.985c0-1.532,0.132-3.046,0.359-4.544h59.253C103.026,391.702,103.158,393.216,103.158,394.748z
	 M16.508,373.85c4.003-28.059,28.149-49.066,56.665-49.066c28.788,0,52.681,21.361,56.662,49.066H16.508z M73.173,308.428
	c-15.999,0-30.919,5.156-43.093,13.954v-71.942h98.152c19.585,0,35.519,15.933,35.519,35.519v58.632h-27.245
	C123.671,322.964,100.093,308.428,73.173,308.428z M334.109,344.591h-29.803v-56.136c9.518-3.376,16.355-12.465,16.355-23.127
	c0-13.528-11.006-24.533-24.533-24.533h-51.792V119.977h89.773V344.591z M350.465,209.795v-89.819h32.396
	c15.498,27.842,25.807,58.315,30.492,89.819H350.465z M454.412,394.748c0,16.534-13.452,29.985-29.985,29.985
	c-16.533,0-29.985-13.451-29.985-29.985c0-1.532,0.132-3.046,0.359-4.544h59.25C454.278,391.701,454.412,393.215,454.412,394.748z
	 M480.13,372.963c-0.273,0.331-0.88,0.886-1.875,0.886h-16.41c-0.954-0.176-1.946-0.182-2.937,0h-55.324
	c7.904-15.764,14.209-32.121,18.894-49.004c0.65-0.022,1.301-0.062,1.95-0.062c3.357,0,6.658,0.297,9.875,0.86
	c0.895,0.224,1.806,0.408,2.731,0.546c21.753,4.915,39.213,22.285,43.591,44.874C480.793,371.933,480.449,372.577,480.13,372.963z"
	/>
<path d="M378.992,253.612c4.517,0,8.178-3.661,8.178-8.178s-3.66-8.178-8.178-8.178h-9.718c-4.517,0-8.178,3.661-8.178,8.178
	s3.66,8.178,8.178,8.178H378.992z"/>
<path d="M503.822,287.942H490.94c-4.517,0-8.178,3.661-8.178,8.178c0,4.516,3.66,8.178,8.178,8.178h12.883
	c4.517,0,8.178-3.661,8.178-8.178C512,291.603,508.34,287.942,503.822,287.942z"/>
<path d="M489.851,278.991c1.015,0,2.047-0.19,3.047-0.591l11.955-4.802c4.19-1.684,6.224-6.445,4.54-10.637
	c-1.684-4.19-6.444-6.223-10.638-4.54l-11.955,4.802c-4.19,1.684-6.224,6.445-4.54,10.637
	C483.543,277.05,486.611,278.991,489.851,278.991z"/>
<path d="M504.961,317.745l-11.848-5.058c-4.154-1.772-8.958,0.159-10.731,4.31c-1.774,4.154,0.157,8.958,4.31,10.732l11.848,5.058
	c1.047,0.447,2.136,0.659,3.206,0.659c3.177,0,6.2-1.862,7.525-4.969C511.045,324.323,509.115,319.517,504.961,317.745z"/>
</svg>