<?xml version="1.0" encoding="utf-8"?>
<!-- Generator: Adobe Illustrator 27.5.0, SVG Export Plug-In . SVG Version: 6.00 Build 0)  -->
<svg version="1.1" xmlns="http://www.w3.org/2000/svg" xmlns:xlink="http://www.w3.org/1999/xlink" x="0px" y="0px"
	 viewBox="0 0 750 500" style="enable-background:new 0 0 750 500;" xml:space="preserve">
<g id="BACKGROUND">
	<g>
		<g>
			<rect y="0.193" style="fill:#FFFFFF;" width="750" height="500"/>
		</g>
	</g>
</g>
<g id="OBJECTS">
	<g>
		<polygon style="fill:#D0D7EA;" points="632.124,392.893 632.124,273.311 581.165,273.311 581.165,296.483 555.227,296.483 
			555.227,225.824 470.206,225.824 470.206,257.968 422.906,257.968 422.906,165.487 385.219,165.487 385.219,114.664 
			334.261,114.664 334.261,171.776 281.382,171.776 281.382,101.117 223.301,101.117 223.301,237.953 176.002,237.953 
			176.002,205.809 125.366,205.809 125.366,392.893 		"/>
		<g>
			<g>
				<polygon style="fill:#352A6C;stroke:#352A6C;stroke-width:0.6646;stroke-miterlimit:10;" points="547.477,391.552 
					547.477,130.058 450.389,130.058 450.389,196.62 425.179,196.62 425.179,179.378 415.008,179.378 415.008,168.825 
					386.292,168.825 386.292,179.378 366.656,179.378 366.656,168.825 337.94,168.825 337.94,179.378 327.387,179.378 
					327.387,225.444 290.1,225.444 290.1,156.792 270.049,156.792 270.049,134.982 213.062,134.982 213.062,156.792 
					193.011,156.792 193.011,391.552 				"/>
				<g>
					<rect x="206.806" y="169.699" style="fill:#D0D7EA;" width="42.461" height="15.605"/>
					<rect x="206.806" y="201.636" style="fill:#D0D7EA;" width="42.461" height="15.605"/>
					<rect x="206.806" y="233.572" style="fill:#D0D7EA;" width="42.461" height="15.605"/>
					<rect x="206.806" y="265.509" style="fill:#D0D7EA;" width="42.461" height="15.605"/>
					<rect x="206.806" y="297.445" style="fill:#D0D7EA;" width="42.461" height="15.605"/>
					<rect x="259.066" y="169.699" style="fill:#D0D7EA;" width="16.694" height="15.605"/>
					<rect x="340.783" y="193.833" style="fill:#D0D7EA;" width="16.694" height="15.605"/>
					<rect x="398.376" y="193.833" style="fill:#D0D7EA;" width="16.694" height="15.605"/>
					<rect x="340.783" y="223.592" style="fill:#D0D7EA;" width="16.694" height="15.605"/>
					<rect x="369.58" y="223.592" style="fill:#D0D7EA;" width="16.694" height="15.605"/>
					<rect x="340.783" y="253.351" style="fill:#D0D7EA;" width="16.694" height="15.605"/>
					<rect x="398.376" y="253.351" style="fill:#D0D7EA;" width="16.694" height="15.605"/>
					<rect x="259.066" y="201.636" style="fill:#D0D7EA;" width="16.694" height="15.605"/>
					<rect x="259.066" y="233.572" style="fill:#D0D7EA;" width="16.694" height="15.605"/>
					<rect x="259.066" y="265.509" style="fill:#D0D7EA;" width="16.694" height="15.605"/>
					<rect x="259.066" y="297.445" style="fill:#D0D7EA;" width="16.694" height="15.605"/>
					<rect x="206.806" y="321.258" style="fill:#D0D7EA;" width="42.461" height="15.605"/>
					<rect x="259.066" y="321.258" style="fill:#D0D7EA;" width="16.694" height="15.605"/>
					<g>
						<rect x="463.322" y="142.641" style="fill:#D0D7EA;" width="17.23" height="27.86"/>
						<rect x="516.125" y="142.641" style="fill:#D0D7EA;" width="17.231" height="27.86"/>
						<rect x="489.723" y="182.99" style="fill:#D0D7EA;" width="17.231" height="27.86"/>
						<rect x="463.322" y="223.338" style="fill:#D0D7EA;" width="17.23" height="27.86"/>
						<rect x="516.125" y="223.338" style="fill:#D0D7EA;" width="17.231" height="27.86"/>
						<rect x="489.723" y="223.338" style="fill:#D0D7EA;" width="17.231" height="27.86"/>
						<rect x="489.723" y="299.251" style="fill:#D0D7EA;" width="17.231" height="27.86"/>
						<rect x="516.125" y="263.687" style="fill:#D0D7EA;" width="17.231" height="27.86"/>
					</g>
				</g>
			</g>
			<path style="fill:#B4DD4A;stroke:#352A6C;stroke-width:4;stroke-linecap:round;stroke-linejoin:round;stroke-miterlimit:10;" d="
				M281.527,393.076c-0.181-11.427-9.486-20.639-20.957-20.639c-2.026,0-3.978,0.303-5.831,0.839c0.024-0.594,0.045-1.19,0.045-1.79
				c0-23.896-19.371-43.267-43.267-43.267c-17.789,0-33.064,10.739-39.713,26.085c-0.345-0.009-0.688-0.026-1.035-0.026
				c-21.364,0-38.683,17.319-38.683,38.683c0,0.038,0.003,0.076,0.003,0.115H281.527z"/>
			<path style="fill:#B4DD4A;stroke:#352A6C;stroke-width:4;stroke-linecap:round;stroke-linejoin:round;stroke-miterlimit:10;" d="
				M683.768,393.076c-0.181-11.427-9.486-20.639-20.957-20.639c-2.026,0-3.978,0.303-5.831,0.839c0.024-0.594,0.045-1.19,0.045-1.79
				c0-23.896-19.371-43.267-43.267-43.267c-17.789,0-33.064,10.739-39.713,26.085c-0.345-0.009-0.688-0.026-1.035-0.026
				c-21.364,0-38.683,17.319-38.683,38.683c0,0.038,0.003,0.076,0.003,0.115H683.768z"/>
			<g>
				<path style="fill:#FFD322;" d="M534.327,391.552c-11.521,0-21.304-7.515-24.748-17.894c-0.036-0.172-0.088-0.331-0.172-0.479
					c-0.756-2.438-1.165-5.027-1.165-7.71c0-14.382,11.701-26.083,26.085-26.083c14.382,0,26.083,11.701,26.083,26.083
					S548.709,391.552,534.327,391.552z M354.217,364.435H504.87c-0.012,0.346-0.052,0.685-0.052,1.034
					c0,2.352,0.306,4.629,0.828,6.823H353.441c0.522-2.194,0.828-4.471,0.828-6.823C354.269,365.12,354.229,364.781,354.217,364.435
					z M595.756,372.292h-32.75c0.522-2.194,0.828-4.471,0.828-6.823c0-0.349-0.04-0.687-0.052-1.034h38.698l0,0.699
					C602.424,365.866,601.746,372.292,595.756,372.292z M602.479,361.01H581.17c1.385-4.135,7.628-4.643,7.822-4.661h13.487
					L602.479,361.01z M253.984,340.899c-0.003-1.308,0.335-5.052,1.924-6.644c0.471-0.472,1.002-0.692,1.671-0.692h10.67
					c1.947,0,3.785-0.945,4.917-2.527c1.142-1.595,1.435-3.575,0.802-5.43c-2.993-8.774-8.174-13.866-14.676-14.635v-2.418
					c4.576-0.224,17.696-1.794,37.767-11.703l4.156-2.062c23.081-11.487,46.948-23.366,99.692-23.366
					c57.903,0,82.651,12.412,116.525,32.853c0.162,0.097,0.34,0.167,0.525,0.207c16.307,3.5,58.954,12.674,60.397,13.068
					c0.063,0.02,0.192,0.058,0.376,0.11c2.958,0.827,8.074,2.654,12.068,6.085c-7.447-2.285-17.657-2.676-22.788-2.71
					c-0.943-0.043-1.776,0.554-2.127,1.427c-0.353,0.878-0.137,1.866,0.552,2.517l11.201,10.619
					c1.166,1.104,2.692,1.711,4.296,1.711h15.971c0.957,0.446,4.572,2.505,4.572,8.211l0.002,7.405l-13.599,0.003
					c-3.612,0.242-10.15,2.273-11.242,8.082h-14.175c-2.161-14.157-14.383-25.049-29.134-25.049
					c-14.752,0-26.975,10.893-29.136,25.049H353.895c-2.161-14.157-14.383-25.049-29.134-25.049s-26.973,10.893-29.134,25.049
					h-41.193c-0.279-0.607-0.451-1.267-0.451-1.995V340.899z M262.934,366.397c-0.048-0.011-2.633-0.593-5.013-1.962h37.385
					c-0.012,0.346-0.052,0.685-0.052,1.034c0,2.141,0.242,4.225,0.678,6.238L262.934,366.397z M298.678,365.469
					c0-14.382,11.701-26.083,26.083-26.083c14.382,0,26.083,11.701,26.083,26.083s-11.701,26.083-26.083,26.083
					C310.38,391.552,298.678,379.85,298.678,365.469z"/>
				<g>
					<rect x="115.597" y="393.586" style="fill:#D0D7EA;" width="584.482" height="5.297"/>
					<g>
						<g>
							<path style="fill:#D0D7EA;" d="M567.669,198.026c1.161,0,2.286-0.376,3.36-0.986h-7.39
								C564.912,197.669,566.265,198.026,567.669,198.026z"/>
						</g>
						<path style="fill:#D02867;" d="M257.921,313.182v18.306h12.242c0,0,5.44-2.017,2.57-4.527
							C269.863,324.45,268.008,313.379,257.921,313.182z"/>
						<path style="fill:#FF7922;" d="M345.043,313.317c-0.058-0.204-0.357-0.168-0.365,0.044l-0.559,14.857
							c-0.018,0.204,0.082,0.399,0.262,0.497c2.356,1.275,18.148,10.402,18.482,26.031c0.006,0.278,0.21,0.503,0.488,0.503
							c2.813,0,17.277,0,25.932,0c0.638,0,0.703-0.929,0.073-1.029l-22.345-3.543c-0.254-0.04-0.441-0.246-0.436-0.503
							c0.051-2.61-0.514-16.441-17.62-23.896c-0.113-0.127-0.212-0.239-0.325-0.366L345.043,313.317z"/>
						<path style="fill:#FF7922;" d="M427.121,355.083L427.121,355.083c-1.196,0-2.166-0.97-2.166-2.166v-37.405
							c0-1.196,0.97-2.166,2.166-2.166l0,0c1.196,0,2.166,0.97,2.166,2.166v37.405C429.287,354.114,428.317,355.083,427.121,355.083
							z"/>
						<path style="fill:#FF7922;" d="M521.456,331.142c0.266,0.671,0.91,1.079,1.59,1.079c0.211,0,0.425-0.038,0.634-0.122
							c0.878-0.35,1.308-1.345,0.957-2.224c-3.295-8.28-9.636-14.208-9.905-14.457c-0.692-0.642-1.776-0.597-2.418,0.094
							c-0.642,0.694-0.6,1.778,0.092,2.42C512.466,317.986,518.456,323.602,521.456,331.142z"/>
						<path style="fill:#FF7922;" d="M297.7,374.069l-35.3-5.621c0,0-7.868-2.937-9.749-5.789h42.302L297.7,374.069z"/>
						<polygon style="fill:#FF7922;" points="350.844,374.863 353.441,362.658 505.646,362.658 508.242,374.069 						"/>
						<path style="fill:#333333;" d="M324.761,337.352c-15.529,0-28.117,12.589-28.117,28.117c0,15.529,12.589,28.117,28.117,28.117
							c15.529,0,28.117-12.589,28.117-28.117C352.878,349.941,340.29,337.352,324.761,337.352z"/>
						<circle style="fill:#D0D7EA;" cx="324.761" cy="365.469" r="15.888"/>
						<path style="fill:#333333;" d="M534.326,337.352c-15.529,0-28.117,12.589-28.117,28.117c0,15.529,12.588,28.117,28.117,28.117
							c15.529,0,28.117-12.589,28.117-28.117C562.443,349.941,549.855,337.352,534.326,337.352z"/>
						<circle style="fill:#D0D7EA;" cx="534.326" cy="365.469" r="15.888"/>
						<path style="fill:#A1DCEA;" d="M309.732,301.004c0,0,26.526-20.878,99.708-20.878c62.05,0,96.206,29.523,96.206,29.523
							L309.732,301.004z"/>
						<g>
							<path style="fill:#FFFFFF;" d="M526.929,189.904h20.403c0.536,0,1.041-0.251,1.365-0.678
								c0.324-0.427,0.429-0.981,0.284-1.497c-0.416-1.479-0.626-2.946-0.626-4.358c0-9.005,7.326-16.332,16.332-16.332
								c4.228,0,8.245,1.622,11.308,4.566c0.359,0.345,0.847,0.514,1.341,0.472c0.495-0.045,0.945-0.303,1.235-0.706
								c1.283-1.782,2.886-3.268,4.765-4.415c0.586-0.358,0.901-1.032,0.801-1.712c-0.135-0.917-0.198-1.681-0.198-2.402
								c0-9.004,7.327-16.331,16.332-16.331c8.203,0,15.161,6.136,16.186,14.273c0.07,0.559,0.41,1.047,0.911,1.306
								c3.085,1.599,5.627,4.205,7.161,7.337c0.325,0.665,1.043,1.047,1.774,0.944c0.876-0.122,1.601-0.179,2.28-0.179
								c9.005,0,16.331,7.326,16.331,16.331c0,0.509-0.052,1.004-0.1,1.5c-0.048,0.481,0.11,0.96,0.435,1.318
								c0.325,0.359,0.786,0.563,1.269,0.563h10.204c1.968,0,3.569,1.601,3.569,3.568c0,1.967-1.601,3.568-3.569,3.568H526.929
								c-1.968,0-3.569-1.601-3.569-3.568C523.36,191.505,524.961,189.904,526.929,189.904z"/>
							<path style="fill:#D0D7EA;" d="M655.452,188.177l-8.974-0.438c-0.023-10.153-5.827-19.48-16.415-19.48
								c-0.483,0-3.408-0.045-3.94,0c-1.69-2.844-4.195-6.332-7.141-7.967c-1.573-8.782-9.565-15.305-18.936-15.305
								c-10.604,0-17.479,7.41-17.479,17.582c0,0.538-0.501,2.688-0.438,3.283c-1.318,0.872-3.986,2.569-5.034,3.721
								c-3.394-2.592-7.447-3.721-11.819-3.721c-10.604,0-19.097,6.578-19.097,16.751c0,0.953,0.102,5.034,0.274,6.012
								l-17.795-0.219c-3.754,0-6.807,0.039-6.807,3.639s3.054,6.53,6.807,6.53h126.335c3.754,0,6.807-2.929,6.807-6.53
								S659.206,188.177,655.452,188.177z M651.741,199.143h-96.257c-0.152-0.461-0.257-3.199-0.257-3.708
								c0-2.668,2.263-4.839,5.045-4.839h6.232c-0.127-0.725-0.191-1.445-0.191-2.151c0-7.539,6.393-13.672,14.252-13.672
								c3.24,0,6.336,1.046,8.851,2.967c0.777-0.853,1.659-1.607,2.635-2.254c-0.047-0.441-0.069-0.848-0.069-1.247
								c0-7.538,6.393-13.671,14.252-13.671c6.945,0,12.868,4.834,14.033,11.342c2.183,1.212,4.019,2.988,5.271,5.095
								c0.394-0.034,0.76-0.05,1.118-0.05c7.847,0,14.234,6.116,14.251,13.64h6.047c2.782,0,6.823,2.171,6.823,4.839
								C653.775,199.143,651.741,199.143,651.741,199.143z"/>
							<path style="fill:#FF7922;" d="M560.41,374.863c0,0,2.704-12.182,2.596-12.205c-0.107-0.023,41.156,0,41.156,0
								s2.741,11.375-8.801,11.375L560.41,374.863z"/>
							<path style="fill:#91FFFF;" d="M567.869,323.592l12.428,11.982h18.598C598.895,335.573,598.562,320.662,567.869,323.592z"/>
							<path style="fill:#352A6C;" d="M526.929,200.465H656.72c3.856,0,6.994-3.137,6.994-6.993s-3.137-6.993-6.994-6.993h-8.382
								c-0.023-10.873-8.877-19.712-19.756-19.712c-0.497,0-1.004,0.023-1.55,0.072c-1.736-3.045-4.28-5.611-7.307-7.362
								c-1.616-9.405-9.827-16.391-19.454-16.391c-10.894,0-19.757,8.862-19.757,19.756c0,0.576,0.031,1.165,0.096,1.802
								c-1.354,0.934-2.576,2.023-3.653,3.257c-3.487-2.776-7.779-4.287-12.271-4.287c-10.894,0-19.757,8.862-19.757,19.757
								c0,1.021,0.089,2.061,0.265,3.109h-18.266c-3.856,0-6.994,3.137-6.994,6.993S523.073,200.465,526.929,200.465z
								 M526.929,189.904h20.403c0.536,0,1.041-0.251,1.365-0.678c0.324-0.427,0.429-0.981,0.284-1.497
								c-0.416-1.479-0.626-2.946-0.626-4.358c0-9.005,7.326-16.332,16.332-16.332c4.228,0,8.245,1.622,11.308,4.566
								c0.359,0.345,0.847,0.514,1.341,0.472c0.495-0.045,0.945-0.303,1.235-0.706c1.283-1.782,2.886-3.268,4.765-4.415
								c0.586-0.358,0.901-1.032,0.801-1.712c-0.135-0.917-0.198-1.681-0.198-2.402c0-9.004,7.327-16.331,16.332-16.331
								c8.203,0,15.161,6.136,16.186,14.273c0.07,0.559,0.41,1.047,0.911,1.306c3.085,1.599,5.627,4.205,7.161,7.337
								c0.325,0.665,1.043,1.047,1.774,0.944c0.876-0.122,1.601-0.179,2.28-0.179c9.005,0,16.331,7.326,16.331,16.331
								c0,0.509-0.052,1.004-0.1,1.5c-0.048,0.481,0.11,0.96,0.435,1.318c0.325,0.359,0.786,0.563,1.269,0.563h10.204
								c1.968,0,3.569,1.601,3.569,3.568c0,1.967-1.601,3.568-3.569,3.568H526.929c-1.968,0-3.569-1.601-3.569-3.568
								C523.36,191.505,524.961,189.904,526.929,189.904z"/>
							<path style="fill:#352A6C;" d="M698.367,391.552H548.086c6.369-3.374,11.337-9.014,13.876-15.835h33.794
								c7.435,0,9.885-6.759,10.144-10.455V345.52c0-6.816-3.967-9.893-5.962-11.01c-0.712-13.231-14.337-18.482-20.285-20.148
								l-0.217-0.06c-0.947-0.316-46.147-10.029-60.481-13.106c-34.257-20.66-59.396-33.197-118.048-33.197
								c-53.55,0-77.783,12.061-101.218,23.723l-4.146,2.059c-23.876,11.785-37.757,11.372-37.886,11.378
								c-0.478-0.028-0.922,0.151-1.26,0.473c-0.338,0.323-0.528,0.771-0.528,1.237v23.518c-0.892,0.273-1.701,0.763-2.391,1.457
								c-2.868,2.883-2.921,8.447-2.917,9.062v18.109c0,8.163,11.185,10.629,11.744,10.746l34.687,5.585
								c2.494,6.988,7.528,12.771,14.011,16.205h-96.374c-0.869,0-97.22,0.399-97.22,0.399c-2.76,0-2.604,3.026-0.098,3.026h581.057
								c0.947,0,1.712-0.766,1.712-1.712S699.313,391.552,698.367,391.552z M534.327,391.552c-11.521,0-21.304-7.515-24.748-17.894
								c-0.036-0.172-0.088-0.331-0.172-0.479c-0.756-2.438-1.165-5.027-1.165-7.71c0-14.382,11.701-26.083,26.085-26.083
								c14.382,0,26.083,11.701,26.083,26.083S548.709,391.552,534.327,391.552z M354.217,364.435H504.87
								c-0.012,0.346-0.052,0.685-0.052,1.034c0,2.352,0.306,4.629,0.828,6.823H353.441c0.522-2.194,0.828-4.471,0.828-6.823
								C354.269,365.12,354.229,364.781,354.217,364.435z M595.756,372.292h-32.75c0.522-2.194,0.828-4.471,0.828-6.823
								c0-0.349-0.04-0.687-0.052-1.034h38.698l0,0.699C602.424,365.866,601.746,372.292,595.756,372.292z M602.479,361.01H581.17
								c1.385-4.135,7.628-4.643,7.822-4.661h13.487L602.479,361.01z M595.394,329.832c0.522,1.234,0.872,2.587,1.034,4.051h-14.495
								c-0.724,0-1.415-0.274-1.942-0.773l-9.069-8.597C581.003,324.81,591.901,326.331,595.394,329.832z M259.292,314.384
								c6.242,0.964,9.651,7.1,11.435,12.327c0.271,0.796,0.145,1.646-0.346,2.331c-0.497,0.696-1.275,1.095-2.131,1.095h-8.958
								V314.384z M253.984,340.899c-0.003-1.308,0.335-5.052,1.924-6.644c0.471-0.472,1.002-0.692,1.671-0.692h10.67
								c1.947,0,3.785-0.945,4.917-2.527c1.142-1.595,1.435-3.575,0.802-5.43c-2.993-8.774-8.174-13.866-14.676-14.635v-2.418
								c4.576-0.224,17.696-1.794,37.767-11.703l4.156-2.062c23.081-11.487,46.948-23.366,99.692-23.366
								c57.903,0,82.651,12.412,116.525,32.853c0.162,0.097,0.34,0.167,0.525,0.207c16.307,3.5,58.954,12.674,60.397,13.068
								c0.063,0.02,0.192,0.058,0.376,0.11c2.958,0.827,8.074,2.654,12.068,6.085c-7.447-2.285-17.657-2.676-22.788-2.71
								c-0.943-0.043-1.776,0.554-2.127,1.427c-0.353,0.878-0.137,1.866,0.552,2.517l11.201,10.619
								c1.166,1.104,2.692,1.711,4.296,1.711h15.971c0.957,0.446,4.572,2.505,4.572,8.211l0.002,7.405l-13.599,0.003
								c-3.612,0.242-10.15,2.273-11.242,8.082h-14.175c-2.161-14.157-14.383-25.049-29.134-25.049
								c-14.752,0-26.975,10.893-29.136,25.049H353.895c-2.161-14.157-14.383-25.049-29.134-25.049s-26.973,10.893-29.134,25.049
								h-41.193c-0.279-0.607-0.451-1.267-0.451-1.995V340.899z M262.934,366.397c-0.048-0.011-2.633-0.593-5.013-1.962h37.385
								c-0.012,0.346-0.052,0.685-0.052,1.034c0,2.141,0.242,4.225,0.678,6.238L262.934,366.397z M298.678,365.469
								c0-14.382,11.701-26.083,26.083-26.083c14.382,0,26.083,11.701,26.083,26.083s-11.701,26.083-26.083,26.083
								C310.38,391.552,298.678,379.85,298.678,365.469z M338.521,391.552c6.369-3.374,11.337-9.014,13.876-15.835H506.69
								c2.539,6.821,7.508,12.462,13.877,15.835H338.521z"/>
							<path style="fill:#352A6C;" d="M307.442,303.156l200.419,8.865c0.025,0.002,0.05,0.002,0.075,0.002
								c0.697,0,1.328-0.423,1.589-1.074c0.271-0.674,0.087-1.447-0.458-1.925c-0.381-0.335-9.527-8.27-27.979-15.929
								c-12.25-5.084-30.478-10.693-54.251-12.862l-1.587-0.148c-8.682-0.727-18.074-1.003-28.193-0.615
								c-69.833,2.674-89.863,19.966-90.682,20.7c-0.518,0.465-0.703,1.196-0.468,1.851
								C306.139,302.678,306.746,303.126,307.442,303.156z M502.443,308.354l-74.797-3.309v-21.313
								C468.054,287.647,492.963,301.879,502.443,308.354z M397.186,282.893c9.655-0.368,18.657-0.129,27.034,0.546v21.455
								l-76.68-3.392v-13.137C360.161,285.801,376.433,283.688,397.186,282.893z M344.116,289.091v12.26l-31.275-1.383
								C317.761,297.182,327.454,292.774,344.116,289.091z"/>
							<path style="fill:#352A6C;" d="M346.476,327.929v-17.618c0-0.947-0.767-1.712-1.712-1.712c-0.946,0-1.713,0.766-1.713,1.712
								v18.68c0,0.669,0.391,1.278,0.998,1.557c0.178,0.082,17.797,8.368,17.797,24.09c0,0.947,0.767,1.713,1.712,1.713
								s1.712-0.766,1.712-1.713C365.271,338.835,350.539,330.051,346.476,327.929z"/>
							<path style="fill:#352A6C;" d="M425.933,313.348c-0.945,0-1.712,0.766-1.712,1.712v38.311c0,0.947,0.767,1.712,1.712,1.712
								c0.946,0,1.713-0.766,1.713-1.712V315.06C427.645,314.113,426.879,313.348,425.933,313.348z"/>
							<path style="fill:#352A6C;" d="M519.938,331.743c0.266,0.671,0.91,1.078,1.59,1.078c0.211,0,0.425-0.038,0.634-0.122
								c0.878-0.35,1.308-1.345,0.957-2.224c-3.294-8.28-9.636-14.208-9.905-14.457c-0.692-0.642-1.776-0.597-2.418,0.094
								c-0.642,0.694-0.6,1.778,0.092,2.42C510.948,318.587,516.938,324.203,519.938,331.743z"/>
							<path style="fill:#352A6C;" d="M534.327,347.014c-10.176,0-18.456,8.278-18.456,18.454c0,10.176,8.28,18.456,18.456,18.456
								s18.454-8.28,18.454-18.456C552.781,355.293,544.503,347.014,534.327,347.014z M534.327,380.499
								c-8.288,0-15.031-6.743-15.031-15.031c0-8.286,6.743-15.029,15.031-15.029c8.286,0,15.029,6.743,15.029,15.029
								C549.356,373.757,542.613,380.499,534.327,380.499z"/>
							<path style="fill:#352A6C;" d="M324.761,347.014c-10.176,0-18.455,8.278-18.455,18.454c0,10.176,8.279,18.456,18.455,18.456
								c10.176,0,18.455-8.28,18.455-18.456C343.216,355.293,334.938,347.014,324.761,347.014z M324.761,380.499
								c-8.287,0-15.03-6.743-15.03-15.031c0-8.286,6.743-15.029,15.03-15.029c8.287,0,15.03,6.743,15.03,15.029
								C339.791,373.757,333.049,380.499,324.761,380.499z"/>
						</g>
					</g>
				</g>
			</g>
			<g>
				
					<path style="fill:#FFD322;stroke:#352A6C;stroke-width:4;stroke-linecap:round;stroke-linejoin:round;stroke-miterlimit:10;" d="
					M454.008,176.227c-3.678-3.718-7.987-6.451-12.579-8.204c-8.919-3.405-18.911-3.089-27.476,1.006
					c-3.145,1.504-6.099,3.51-8.732,6.036l-0.022,0.021c-6.725,6.461-10.134,15.049-10.134,23.72
					c0,19.685,30.724,58.468,34.395,58.468c3.034,0,34.562-38.315,34.562-58.466C464.023,190.663,460.296,182.583,454.008,176.227z
					 M429.657,214.865c-8.523,0.001-15.434-6.908-15.435-15.432c-0.001-8.524,6.908-15.434,15.432-15.435
					c8.523-0.001,15.434,6.908,15.435,15.432C445.089,207.954,438.18,214.864,429.657,214.865z"/>
			</g>
		</g>
	</g>
	<g>
		<path style="fill:#D0D7EA;" d="M252.71,437.265H113.978c-9.967,0-18.048-8.08-18.048-18.048V80.783
			c0-9.968,8.08-18.048,18.048-18.048H252.71c9.967,0,18.048,8.08,18.048,18.048v338.435
			C270.758,429.185,262.678,437.265,252.71,437.265z"/>
		<path style="fill:#62A5D7;" d="M100.172,431.093c2.549,2.394,5.046,4.83,7.54,7.263V164.742l-12.615-10.74v10.056l5.076,4.321
			V431.093z"/>
		<g>
			<path style="fill:#E9EDF7;" d="M261.659,402.116c-0.031,11.878-0.061,24.09-0.092,36.525h0.198
				c3.118-3.121,6.163-6.345,8.992-9.709V83.107l-19.296-23.263h-12.731l23.486,28.316v63.896h-38.071v57.096h-74.402v-57.798
				l69.34-44.339l-45.395-47.171h-15.9l43.303,44.996l-57.204,36.577L95.097,97.131v34.442l29.516,26.791v50.787H95.097v11.613
				h29.516v103.281H95.097v11.613h29.516v102.983h25.132V220.764h31.768v217.876h11.309V220.764h31.324v181.352H261.659z
				 M233.839,162.008h28.378v47.144h-28.378V162.008z M233.839,220.764h28.36c-0.034,9.937-0.112,33.173-0.21,65.298h-28.149
				V220.764z M233.839,297.14h28.115c-0.082,27.09-0.176,59.485-0.27,95.024h-27.846V297.14z"/>
			<g>
				<path style="fill:#FFFFFF;" d="M257.634,326.29H109.055c-6.83,0-12.367,5.537-12.367,12.367v85.716
					c2.22,7.454,9.116,12.892,17.291,12.892H252.71c8.175,0,15.071-5.439,17.291-12.893v-85.715
					C270.001,331.827,264.464,326.29,257.634,326.29z"/>
			</g>
			<path style="fill:#352A6C;" d="M246.437,426.982H121.064c-5.584,0-10.11-4.526-10.11-10.11l0,0c0-5.584,4.526-10.11,10.11-10.11
				h125.373c5.584,0,10.11,4.526,10.11,10.11l0,0C256.547,422.456,252.021,426.982,246.437,426.982z"/>
			
				<text transform="matrix(1 0 0 1 158.4114 419.9209)" style="fill:#FFFFFF; font-family:'FiraSans-Regular'; font-size:8.6014px;">Lorem Ipsum</text>
			<path style="fill:#D0D7EA;" d="M216.76,333.291h-66.831c-0.699,0-1.266-0.567-1.266-1.266l0,0c0-0.699,0.567-1.266,1.266-1.266
				h66.831c0.699,0,1.266,0.567,1.266,1.266l0,0C218.025,332.724,217.459,333.291,216.76,333.291z"/>
		</g>
		<path style="fill:#352A6C;" d="M253.213,56.018H113.476c-10.895,0-19.728,8.832-19.728,19.728v348.509
			c0,10.895,8.832,19.728,19.728,19.728h139.737c10.895,0,19.728-8.832,19.728-19.728V75.745
			C272.94,64.85,264.108,56.018,253.213,56.018z M269.244,417.691c0,10.113-8.198,18.311-18.311,18.311H115.755
			c-10.113,0-18.311-8.198-18.311-18.311V81.829c0-9.847,7.983-17.83,17.83-17.83h17.711c2.173,0,4.097,1.403,4.762,3.471
			l1.924,5.984c1.047,3.258,4.077,5.467,7.499,5.467h72.348c3.422,0,6.452-2.209,7.499-5.467l1.924-5.985
			c0.665-2.068,2.589-3.471,4.762-3.471h17.711c9.847,0,17.83,7.983,17.83,17.83V417.691z"/>
		<g>
			<text transform="matrix(1 0 0 1 151.5608 359.918)" style="fill:#352A6C; font-family:'FiraSans-Regular'; font-size:8.6014px;">John Smith R.</text>
			
				<text transform="matrix(1 0 0 1 132.3206 391.5537)" style="fill:#352A6C; font-family:'FiraSans-Regular'; font-size:8.6014px;">Credits 132.00</text>
			
				<text transform="matrix(1 0 0 1 151.5608 368.7686)" style="fill:#352A6C; font-family:'FiraSans-SemiBold'; font-size:8.3382px;">10:24</text>
			
				<text transform="matrix(1 0 0 1 231.6467 364.8867)" style="fill:#352A6C; font-family:'FiraSans-SemiBold'; font-size:8.3382px;">13USD</text>
			<g>
				<path style="fill:#352A6C;" d="M111.894,360.469c-0.311,0-0.658,0.024-1-0.005c-0.958-0.079-1.445-0.612-1.428-1.53
					c0.017-0.848,0.53-1.411,1.42-1.453c0.898-0.042,1.799-0.009,2.905-0.009c0.406-1.332,0.909-2.941,1.387-4.557
					c0.55-1.861,0.541-1.863,2.448-1.863c4.99,0,9.98,0.019,14.969-0.015c0.975-0.007,1.507,0.307,1.77,1.281
					c0.483,1.791,1.069,3.555,1.594,5.273c0.921-0.042,1.787-0.117,2.652-0.113c1.097,0.005,1.639,0.542,1.632,1.524
					c-0.007,0.942-0.511,1.416-1.581,1.471c-0.302,0.015-0.605,0.002-1.009,0.09c1.139,0.845,1.002,2.01,0.998,3.145
					c-0.008,2.337-0.027,4.674,0.01,7.011c0.014,0.868-0.329,1.194-1.173,1.165c-1.041-0.035-2.084-0.001-3.126-0.002
					c-1.456-0.001-1.47-0.016-1.618-1.503c-5.243,0-10.494,0-15.74,0c-0.243,1.48-0.243,1.481-1.796,1.481
					c-1.074,0-2.148-0.009-3.221-0.003c-0.627,0.003-0.923-0.283-0.921-0.92c0.007-2.842-0.043-5.686,0.038-8.526
					C111.122,361.788,111.593,361.178,111.894,360.469z M134.999,358.924c-0.601-1.975-1.196-4.017-1.869-6.034
					c-0.081-0.243-0.576-0.492-0.881-0.495c-4.923-0.031-9.846-0.031-14.769-0.001c-0.308,0.002-0.811,0.245-0.891,0.487
					c-0.673,2.017-1.267,4.059-1.87,6.043C121.512,358.924,128.212,358.924,134.999,358.924z M124.846,366.939
					c1.417,0,2.834,0.005,4.25-0.002c0.646-0.003,1.25-0.715,1.198-1.459c-0.05-0.707-0.621-0.581-1.075-0.581
					c-2.896-0.005-5.793-0.005-8.689,0.002c-0.451,0.001-1.021-0.142-1.111,0.547c-0.09,0.692,0.555,1.488,1.177,1.492
					C122.013,366.947,123.43,366.941,124.846,366.939z M117.379,363.36c0.047-0.952-0.784-1.837-1.751-1.866
					c-0.918-0.028-1.745,0.764-1.789,1.712c-0.044,0.955,0.699,1.79,1.638,1.84C116.488,365.1,117.33,364.353,117.379,363.36z
					 M134.063,365.045c0.978,0.022,1.77-0.708,1.806-1.667c0.039-1.003-0.739-1.864-1.707-1.888
					c-0.947-0.024-1.841,0.845-1.842,1.789C132.319,364.205,133.128,365.024,134.063,365.045z"/>
			</g>
			<rect x="108.879" y="383.473" style="fill:#352A6C;" width="15.979" height="9.458"/>
		</g>
	</g>
	<g>
		<g>
			
				<line style="fill:none;stroke:#352A6C;stroke-width:4;stroke-linecap:round;stroke-linejoin:round;" x1="186.562" y1="194.699" x2="192.562" y2="194.699"/>
			
				<line style="fill:none;stroke:#352A6C;stroke-width:4;stroke-linecap:round;stroke-linejoin:round;stroke-dasharray:9.8668,9.8668;" x1="202.429" y1="194.699" x2="236.963" y2="194.699"/>
			<polyline style="fill:none;stroke:#352A6C;stroke-width:4;stroke-linecap:round;stroke-linejoin:round;" points="
				241.897,194.699 247.897,194.699 247.897,188.699 			"/>
			
				<line style="fill:none;stroke:#352A6C;stroke-width:4;stroke-linecap:round;stroke-linejoin:round;stroke-dasharray:13.4881,13.4881;" x1="247.897" y1="175.21" x2="247.897" y2="101.026"/>
			<polyline style="fill:none;stroke:#352A6C;stroke-width:4;stroke-linecap:round;stroke-linejoin:round;" points="247.897,94.282 
				247.897,88.282 253.897,88.282 			"/>
			
				<line style="fill:none;stroke:#352A6C;stroke-width:4;stroke-linecap:round;stroke-linejoin:round;stroke-dasharray:11.3172,11.3172;" x1="265.214" y1="88.282" x2="417.996" y2="88.282"/>
			<polyline style="fill:none;stroke:#352A6C;stroke-width:4;stroke-linecap:round;stroke-linejoin:round;" points="423.655,88.282 
				429.655,88.282 429.655,94.282 			"/>
			
				<line style="fill:none;stroke:#352A6C;stroke-width:4;stroke-linecap:round;stroke-linejoin:round;stroke-dasharray:13.1232,13.1232;" x1="429.655" y1="107.405" x2="429.655" y2="153.337"/>
			
				<line style="fill:none;stroke:#352A6C;stroke-width:4;stroke-linecap:round;stroke-linejoin:round;" x1="429.655" y1="159.898" x2="429.655" y2="165.898"/>
		</g>
	</g>
	<g>
		<g>
			
				<ellipse transform="matrix(0.9637 -0.267 0.267 0.9637 -52.4392 39.6025)" style="fill:#B4DD4A;stroke:#352A6C;stroke-width:4;stroke-linecap:round;stroke-linejoin:round;stroke-miterlimit:10;" cx="119.411" cy="212.636" rx="69.49" ry="69.49"/>
			<g>
				<g>
					<g>
						<g>
							<g>
								<g>
									<g>
										<g>
											<g>
												<g>
													<g>
														<g>
															<g>
																
																	<path style="fill:#96BFD7;stroke:#352A6C;stroke-width:2.7297;stroke-linecap:round;stroke-linejoin:round;stroke-miterlimit:10;" d="
																	M113.57,282.074l10.564-0.004c11.061-0.741,21.489-3.773,30.821-8.632c-1.181-14.29-4.401-41.784-11.927-46.462
																	c-5.377-3.342-11.971-6.501-22.331-6.365c-12.5,0.165-27.776,1.144-35.589,8.797
																	c-4.688,4.592-5.08,13.583-5.078,20.652c0.002,6.492-0.011,14.264-0.033,21.903
																	C90.014,277.691,101.41,281.268,113.57,282.074z"/>
																
																	<line style="fill:none;stroke:#352A6C;stroke-width:2.7297;stroke-linecap:round;stroke-linejoin:round;stroke-miterlimit:10;" x1="123.457" y1="231.126" x2="124.465" y2="281.733"/>
																<g>
																	<path style="fill:#1A2E6B;stroke:#352A6C;stroke-width:0.9099;stroke-miterlimit:10;" d="M86.692,252.562
																		c0,0.669-0.542,1.211-1.21,1.211c-0.669,0-1.211-0.542-1.211-1.21c0-0.669,0.542-1.211,1.21-1.211
																		C86.149,251.352,86.692,251.893,86.692,252.562z"/>
																	<path style="fill:#1A2E6B;stroke:#352A6C;stroke-width:0.9099;stroke-miterlimit:10;" d="M98.935,252.558
																		c0,0.669-0.542,1.211-1.21,1.211c-0.668,0-1.211-0.542-1.211-1.21c0-0.669,0.542-1.211,1.21-1.211
																		C98.393,251.347,98.935,251.889,98.935,252.558z"/>
																	<path style="fill:#1A2E6B;stroke:#352A6C;stroke-width:0.9099;stroke-miterlimit:10;" d="M92.929,248.324
																		c0,0.669-0.542,1.211-1.21,1.211c-0.669,0-1.211-0.542-1.211-1.21c0-0.669,0.542-1.211,1.21-1.211
																		C92.387,247.114,92.929,247.655,92.929,248.324z"/>
																	<path style="fill:#1A2E6B;stroke:#352A6C;stroke-width:0.9099;stroke-miterlimit:10;" d="M86.689,244.077
																		c0,0.669-0.542,1.211-1.21,1.211c-0.669,0-1.211-0.542-1.211-1.21c0-0.669,0.542-1.211,1.21-1.211
																		C86.146,242.867,86.689,243.409,86.689,244.077z"/>
																	<path style="fill:#1A2E6B;stroke:#352A6C;stroke-width:0.9099;stroke-miterlimit:10;" d="M98.932,244.073
																		c0,0.669-0.542,1.211-1.21,1.211c-0.669,0-1.211-0.542-1.211-1.21c0-0.669,0.542-1.211,1.21-1.211
																		C98.39,242.863,98.932,243.405,98.932,244.073z"/>
																	<path style="fill:#1A2E6B;stroke:#352A6C;stroke-width:0.9099;stroke-miterlimit:10;" d="M92.926,239.343
																		c0,0.669-0.541,1.211-1.21,1.211c-0.669,0-1.211-0.542-1.211-1.21c0-0.669,0.541-1.211,1.21-1.211
																		S92.926,238.675,92.926,239.343z"/>
																	<path style="fill:#1A2E6B;stroke:#352A6C;stroke-width:0.9099;stroke-miterlimit:10;" d="M87.896,235.593
																		c0,0.669-0.542,1.211-1.21,1.211c-0.669,0-1.211-0.542-1.211-1.21c0-0.669,0.542-1.211,1.21-1.211
																		C87.354,234.382,87.896,234.924,87.896,235.593z"/>
																	<path style="fill:#1A2E6B;stroke:#352A6C;stroke-width:0.9099;stroke-miterlimit:10;" d="M98.929,235.589
																		c0,0.669-0.541,1.211-1.21,1.211c-0.669,0-1.211-0.542-1.211-1.21c0-0.669,0.541-1.211,1.21-1.211
																		C98.387,234.378,98.929,234.92,98.929,235.589z"/>
																	<path style="fill:#1A2E6B;stroke:#352A6C;stroke-width:0.9099;stroke-miterlimit:10;" d="M93.639,231.136
																		c0,0.669-0.542,1.211-1.21,1.211c-0.669,0-1.211-0.542-1.211-1.21c0-0.669,0.541-1.211,1.21-1.211
																		C93.096,229.926,93.639,230.468,93.639,231.136z"/>
																	<path style="fill:#1A2E6B;stroke:#352A6C;stroke-width:0.9099;stroke-miterlimit:10;" d="M102.269,228.712
																		c0,0.669-0.542,1.211-1.21,1.211c-0.669,0-1.211-0.542-1.211-1.21c0-0.669,0.542-1.211,1.21-1.211
																		C101.727,227.502,102.269,228.044,102.269,228.712z"/>
																	<path style="fill:#1A2E6B;stroke:#352A6C;stroke-width:0.9099;stroke-miterlimit:10;" d="M107.281,237.45
																		c0,0.669-0.542,1.211-1.21,1.211c-0.669,0-1.211-0.542-1.211-1.21c0-0.669,0.542-1.211,1.21-1.211
																		C106.738,236.24,107.28,236.781,107.281,237.45z"/>
																	<path style="fill:#1A2E6B;stroke:#352A6C;stroke-width:0.9099;stroke-miterlimit:10;" d="M112.772,244.068
																		c0,0.669-0.542,1.211-1.21,1.211c-0.669,0-1.211-0.542-1.211-1.21c0-0.669,0.542-1.211,1.21-1.211
																		C112.23,242.858,112.772,243.4,112.772,244.068z"/>
																	<path style="fill:#1A2E6B;stroke:#352A6C;stroke-width:0.9099;stroke-miterlimit:10;" d="M118.822,237.446
																		c0,0.669-0.542,1.211-1.21,1.211c-0.669,0-1.211-0.542-1.211-1.21c0-0.669,0.542-1.211,1.21-1.211
																		C118.279,236.236,118.821,236.777,118.822,237.446z"/>
																	<path style="fill:#1A2E6B;stroke:#352A6C;stroke-width:0.9099;stroke-miterlimit:10;" d="M129.364,238.12
																		c0,0.669-0.542,1.211-1.21,1.211c-0.669,0-1.211-0.542-1.211-1.21c0-0.669,0.542-1.211,1.21-1.211
																		C128.821,236.91,129.363,237.452,129.364,238.12z"/>
																	<path style="fill:#1A2E6B;stroke:#352A6C;stroke-width:0.9099;stroke-miterlimit:10;" d="M139.567,229.91
																		c0,0.669-0.542,1.211-1.21,1.211c-0.669,0-1.211-0.542-1.211-1.21c0-0.669,0.542-1.211,1.21-1.211
																		C139.025,228.699,139.567,229.241,139.567,229.91z"/>
																	<path style="fill:#1A2E6B;stroke:#352A6C;stroke-width:0.9099;stroke-miterlimit:10;" d="M135.125,250.124
																		c0,0.669-0.542,1.211-1.21,1.211c-0.669,0-1.211-0.542-1.211-1.21c0-0.669,0.542-1.211,1.21-1.211
																		C134.583,248.914,135.125,249.455,135.125,250.124z"/>
																	<path style="fill:#1A2E6B;stroke:#352A6C;stroke-width:0.9099;stroke-miterlimit:10;" d="M123.929,262.165
																		c0,0.669-0.542,1.211-1.21,1.211c-0.669,0-1.211-0.542-1.211-1.21c0-0.669,0.542-1.211,1.21-1.211
																		C123.386,260.955,123.929,261.497,123.929,262.165z"/>
																	<path style="fill:#1A2E6B;stroke:#352A6C;stroke-width:0.9099;stroke-miterlimit:10;" d="M135.509,262.161
																		c0,0.669-0.542,1.211-1.21,1.211c-0.669,0-1.211-0.542-1.211-1.21c0-0.669,0.542-1.211,1.21-1.211
																		C134.967,260.951,135.509,261.493,135.509,262.161z"/>
																	<path style="fill:#1A2E6B;stroke:#352A6C;stroke-width:0.9099;stroke-miterlimit:10;" d="M123.934,276.176
																		c0,0.669-0.541,1.211-1.21,1.211c-0.669,0-1.211-0.542-1.211-1.21c0-0.669,0.541-1.211,1.21-1.211
																		C123.391,274.966,123.933,275.507,123.934,276.176z"/>
																	<path style="fill:#1A2E6B;stroke:#352A6C;stroke-width:0.9099;stroke-miterlimit:10;" d="M135.514,276.172
																		c0,0.669-0.542,1.211-1.21,1.211c-0.669,0-1.211-0.542-1.211-1.21s0.542-1.211,1.21-1.211
																		S135.514,275.503,135.514,276.172z"/>
																	<path style="fill:#1A2E6B;stroke:#352A6C;stroke-width:0.9099;stroke-miterlimit:10;" d="M129.504,269.292
																		c0,0.669-0.542,1.211-1.21,1.211c-0.669,0-1.211-0.542-1.211-1.21c0-0.669,0.542-1.211,1.21-1.211
																		C128.962,268.081,129.504,268.623,129.504,269.292z"/>
																	<path style="fill:#1A2E6B;stroke:#352A6C;stroke-width:0.9099;stroke-miterlimit:10;" d="M141.344,269.288
																		c0,0.669-0.542,1.211-1.21,1.211c-0.669,0-1.211-0.542-1.211-1.21c0-0.669,0.542-1.211,1.21-1.211
																		C140.801,268.077,141.344,268.619,141.344,269.288z"/>
																	<path style="fill:#1A2E6B;stroke:#352A6C;stroke-width:0.9099;stroke-miterlimit:10;" d="M116.411,269.296
																		c0,0.669-0.542,1.211-1.21,1.211c-0.669,0-1.211-0.542-1.211-1.21s0.542-1.211,1.21-1.211
																		S116.411,268.628,116.411,269.296z"/>
																	<path style="fill:#1A2E6B;stroke:#352A6C;stroke-width:0.9099;stroke-miterlimit:10;" d="M110.316,276.181
																		c0,0.669-0.542,1.211-1.21,1.211c-0.669,0-1.211-0.542-1.211-1.21c0-0.668,0.542-1.211,1.21-1.211
																		C109.773,274.97,110.316,275.512,110.316,276.181z"/>
																	<path style="fill:#1A2E6B;stroke:#352A6C;stroke-width:0.9099;stroke-miterlimit:10;" d="M146.723,276.168
																		c0,0.669-0.542,1.211-1.21,1.211c-0.669,0-1.211-0.542-1.211-1.21c0-0.669,0.542-1.211,1.21-1.211
																		C146.181,274.958,146.723,275.499,146.723,276.168z"/>
																	<path style="fill:#1A2E6B;stroke:#352A6C;stroke-width:0.9099;stroke-miterlimit:10;" d="M128.289,256.278
																		c0,0.669-0.542,1.211-1.21,1.211c-0.669,0-1.211-0.542-1.211-1.21c0-0.669,0.542-1.211,1.21-1.211
																		C127.747,255.068,128.289,255.61,128.289,256.278z"/>
																</g>
																
																	<path style="fill:#F7CBB2;stroke:#352A6C;stroke-width:2.7297;stroke-linecap:round;stroke-linejoin:round;stroke-miterlimit:10;" d="
																	M101.069,258.946l-21.044,0.007c-0.01,7.507-0.037,6.117-0.066,13.527l21.115,2.492L101.069,258.946z"/>
																
																	<path style="fill:#FFFFFF;stroke:#352A6C;stroke-width:2.7297;stroke-linecap:round;stroke-linejoin:round;stroke-miterlimit:10;" d="
																	M104.156,245.282c-1.626,8.902-2.52,17.943-3.291,26.953"/>
															</g>
															
																<path style="fill:#F7CBB2;stroke:#352A6C;stroke-width:2.7297;stroke-linecap:round;stroke-linejoin:round;stroke-miterlimit:10;" d="
																M105.499,221.498c0,0,3.952,0.329,3.942-27.08l19.235-0.007c0,0-4.767,25.865,3.459,28.042
																c0,0-7.348,8.672-8.677,8.673C121.641,231.127,105.499,221.498,105.499,221.498z"/>
															
																<polygon style="fill:#96BFD7;stroke:#352A6C;stroke-width:2.7297;stroke-linecap:round;stroke-linejoin:round;stroke-miterlimit:10;" points="
																123.457,231.126 119.645,224.947 104.146,214.704 102.075,222.032 113.805,232.705 118.834,229.691 															
																"/>
															
																<polygon style="fill:#96BFD7;stroke:#352A6C;stroke-width:2.7297;stroke-linecap:round;stroke-linejoin:round;stroke-miterlimit:10;" points="
																123.457,231.126 127.213,224.005 132.871,219.564 134.285,222.679 133.188,231.123 128.926,228.435 															
																"/>
														</g>
													</g>
												</g>
											</g>
										</g>
									</g>
								</g>
								<g>
									
										<path style="fill:#F7CBB2;stroke:#352A6C;stroke-width:2.7297;stroke-linecap:round;stroke-linejoin:round;stroke-miterlimit:10;" d="
										M147.482,191.635c-6.09,18.272-16.038,29.487-25.894,26.202c-4.488-1.496-13.446-6.469-17.432-13.574
										c-4.767-8.498-3.95-19.884-0.634-29.836c6.09-18.272,18.135-21.031,30.274-16.279
										C145.935,162.9,153.573,173.363,147.482,191.635z"/>
									
										<path style="fill:#F7CBB2;stroke:#352A6C;stroke-width:1.3649;stroke-linecap:round;stroke-linejoin:round;stroke-miterlimit:10;" d="
										M119.676,203.005c0,0,2.907,7.521,11.045,5.571"/>
									
										<path style="fill:#F7CBB2;stroke:#352A6C;stroke-width:2.7297;stroke-linecap:round;stroke-linejoin:round;stroke-miterlimit:10;" d="
										M105.167,186.794c-0.998,0.178-2.052,0.116-3.081-0.227c-3.291-1.097-5.069-4.653-3.972-7.944
										c1.097-3.29,4.653-5.069,7.944-3.972c3.291,1.097,5.069,4.653,3.972,7.944"/>
									
										<path style="fill:none;stroke:#352A6C;stroke-width:1.3649;stroke-linecap:round;stroke-linejoin:round;stroke-miterlimit:10;" d="
										M105.4,179.022c0,0-2.53-1.537-3.267,1.153c-0.737,2.69,1.81,3.219,1.81,3.219"/>
									
										<path style="fill:#7E5936;stroke:#352A6C;stroke-width:2.7297;stroke-linecap:round;stroke-linejoin:round;stroke-miterlimit:10;" d="
										M134.261,152.535c-8.591-1.937-22.731,0.52-25.626,8.208l-4.843,12.921c0.809,0.209,1.455,0.733,2.496,1.282
										c0,0,2.94,2.148,1.021,7.437l4.647,2.186c0.108,0.434,3.604-6.268,4.673-8.396c3.903-7.777,10.636-4.861,13.88-1.491
										c3.026,3.144,6.506,9.883,18.93,8.323C163.393,168.423,146.738,155.349,134.261,152.535z"/>
								</g>
								
									<polygon style="fill:#595394;stroke:#352A6C;stroke-width:2.7297;stroke-linecap:round;stroke-linejoin:round;stroke-miterlimit:10;" points="
									141.331,232.653 133.355,257.251 135.676,259.945 151.318,261.494 158.492,236.222 153.818,233.149 								"/>
								
									<polyline style="fill:none;stroke:#352A6C;stroke-width:2.7297;stroke-linecap:round;stroke-linejoin:round;stroke-miterlimit:10;" points="
									135.676,259.945 143.604,235.237 158.492,236.222 								"/>
								
									<line style="fill:#25418A;stroke:#352A6C;stroke-width:2.7297;stroke-linecap:round;stroke-linejoin:round;stroke-miterlimit:10;" x1="143.604" y1="235.237" x2="141.331" y2="232.653"/>
								
									<path style="fill:#F7CBB2;stroke:#352A6C;stroke-width:2.7297;stroke-linecap:round;stroke-linejoin:round;stroke-miterlimit:10;" d="
									M89.691,265.143c6.135-5.185,14.791-10.661,25.65-15.167c0,0,2.279-6.797,8.577-7.717c6.298-0.921,11.918,0.73,11.864,1.649
									c-0.054,0.918-7.952,1.366-7.952,1.366s3.86,9.656-0.548,9.841c-4.408,0.185-7.973,1.131-7.973,1.131
									s-9.908,18.446-21.311,26.205c-6.543,4.453-14.53,1.395-16.267-0.069c-1.542-1.3-1.735-9.901-1.735-9.901"/>
								
									<path style="fill:#F7CBB2;stroke:#352A6C;stroke-width:2.7297;stroke-linecap:round;stroke-linejoin:round;stroke-miterlimit:10;" d="
									M135.628,233.527c2.191-1.506,10.355,7.392,12.92,7.915c2.644,0.539,7.4-1.66,7.4-1.66s5.515-2.11-0.086,11.082
									c0,0,15.874,36.489,2.197,38.08c-13.677,1.59-11.058-29.966-10.073-34.131c0,0-7.311-0.766-6.983-4.711
									c0.327-3.945,0.436-5.699,0.436-5.699S133.437,235.033,135.628,233.527z"/>
							</g>
						</g>
						<path style="fill:#1A2E6B;stroke:#352A6C;stroke-width:0.9099;stroke-miterlimit:10;" d="M127.778,190.681
							c0,1.067-0.865,1.933-1.932,1.933c-1.067,0-1.933-0.865-1.933-1.932c0-1.067,0.864-1.933,1.932-1.933
							C126.912,188.749,127.777,189.614,127.778,190.681z"/>
						<path style="fill:#1A2E6B;stroke:#352A6C;stroke-width:0.9099;stroke-miterlimit:10;" d="M144.317,196.63
							c0,1.067-0.865,1.933-1.932,1.933c-1.067,0-1.933-0.865-1.933-1.932c0-1.067,0.865-1.933,1.932-1.933
							C143.451,194.698,144.317,195.563,144.317,196.63z"/>
						<g>
							
								<path style="fill:none;stroke:#352A6C;stroke-width:2.7297;stroke-linecap:round;stroke-linejoin:round;stroke-miterlimit:10;" d="
								M122.889,185.221c0,0,5.527-2.702,8.615,2.89"/>
							
								<path style="fill:none;stroke:#352A6C;stroke-width:2.7297;stroke-linecap:round;stroke-linejoin:round;stroke-miterlimit:10;" d="
								M140.705,191.961c0,0,4.633-2.265,7.221,2.422"/>
						</g>
					</g>
					
						<path style="fill:none;stroke:#352A6C;stroke-width:1.3649;stroke-linecap:round;stroke-linejoin:round;stroke-miterlimit:10;" d="
						M136.76,180.807c0,0,6.43-14.075-6.809-17.697"/>
					
						<path style="fill:none;stroke:#352A6C;stroke-width:1.3649;stroke-linecap:round;stroke-linejoin:round;stroke-miterlimit:10;" d="
						M149.619,168.734c0,0,3.429,6.01-4.285,13.885"/>
					
						<path style="fill:none;stroke:#352A6C;stroke-width:1.3649;stroke-linecap:round;stroke-linejoin:round;stroke-miterlimit:10;" d="
						M142.446,170.88c0,0,2.458,4.959-1.542,11.74"/>
				</g>
			</g>
		</g>
		
			<path style="fill:#F7CBB2;stroke:#352A6C;stroke-width:1.3649;stroke-linecap:round;stroke-linejoin:round;stroke-miterlimit:10;" d="
			M130.698,204.146c1.607,0.185,3.06-0.968,3.245-2.575c0.185-1.607-0.968-3.06-2.575-3.245l2.839-5.456"/>
		<g>
			<g>
				<path style="fill:#F7B294;" d="M118.419,192.781c-0.656,0.031-1.166,0.144-1.739,0.476c-0.253,0.147-0.48,0.341-0.698,0.535
					c-0.015,0.014-0.03,0.028-0.044,0.043c-0.187,0.203-0.346,0.435-0.509,0.655c-0.025,0.034-0.047,0.069-0.066,0.107
					c-0.133,0.268-0.267,0.544-0.347,0.833c-0.082,0.294-0.101,0.607-0.128,0.909c-0.002,0.02-0.002,0.041-0.002,0.061
					c0.006,0.271,0.111,0.855,0.112,0.859c0.006,0.041,0.016,0.08,0.031,0.118c0.1,0.256,0.192,0.521,0.325,0.763
					c0.377,0.691,1.068,1.202,1.821,1.408c0.849,0.232,1.793,0.096,2.549-0.351c0.237-0.14,0.447-0.328,0.656-0.503
					c0.018-0.015,0.036-0.031,0.052-0.049c0.498-0.563,0.579-0.735,0.84-1.433c0.008-0.022,0.016-0.044,0.02-0.067
					c0.054-0.282,0.112-0.569,0.113-0.856c0.003-0.702-0.155-1.019-0.434-1.635c-0.011-0.024-0.022-0.047-0.037-0.068
					c-0.159-0.228-0.317-0.462-0.512-0.659c-0.195-0.197-0.436-0.358-0.658-0.513c-0.022-0.015-0.044-0.028-0.068-0.04
					c-0.672-0.33-0.891-0.392-1.643-0.445c-0.026-0.002-0.052-0.001-0.078,0.002c0.164-0.017-0.616,0.038-0.863,0.123
					c-0.39,0.093-0.73,0.272-1.02,0.537c-0.327,0.212-0.584,0.492-0.773,0.842c-0.219,0.344-0.338,0.716-0.356,1.115
					c-0.089,0.399-0.071,0.798,0.054,1.196c0.101,0.239,0.202,0.478,0.302,0.717c0.267,0.451,0.625,0.81,1.076,1.076
					c0.239,0.101,0.478,0.202,0.717,0.302c0.532,0.143,1.063,0.143,1.595,0c0.021-0.007,0.043-0.013,0.065-0.016
					c-0.266,0.036-0.532,0.072-0.797,0.107c0.03-0.004,0.059-0.004,0.089,0c-0.266-0.036-0.532-0.072-0.798-0.107
					c0.037,0.005,0.073,0.015,0.108,0.03c-0.239-0.101-0.478-0.202-0.717-0.303c0.031,0.014,0.06,0.031,0.087,0.052
					c-0.202-0.156-0.405-0.313-0.607-0.469c0.027,0.021,0.051,0.044,0.072,0.071c-0.156-0.202-0.313-0.405-0.469-0.607
					c0.021,0.027,0.037,0.055,0.051,0.086c-0.101-0.239-0.202-0.478-0.302-0.717c0.01,0.025,0.016,0.049,0.021,0.075
					c-0.036-0.266-0.071-0.532-0.107-0.798c0.004,0.028,0.004,0.054,0.001,0.082c0.036-0.266,0.072-0.532,0.107-0.798
					c-0.004,0.031-0.012,0.061-0.024,0.09c0.101-0.239,0.202-0.478,0.302-0.717c-0.014,0.033-0.032,0.063-0.054,0.091
					c0.156-0.202,0.313-0.405,0.469-0.607c-0.023,0.028-0.048,0.053-0.076,0.075c0.202-0.156,0.405-0.313,0.607-0.469
					c-0.029,0.021-0.059,0.039-0.092,0.053c0.239-0.101,0.478-0.202,0.717-0.302c-0.03,0.011-0.059,0.019-0.091,0.024
					c0.266-0.036,0.532-0.071,0.798-0.107c-0.028,0.003-0.054,0.003-0.082,0c0.266,0.036,0.532,0.072,0.797,0.107
					c-0.008-0.001-0.016-0.002-0.023-0.004c0.598,0.46,1.195,0.919,1.793,1.379c-0.013-0.021-0.024-0.042-0.034-0.064
					c0.101,0.239,0.202,0.478,0.302,0.717c-0.017-0.041-0.029-0.083-0.035-0.128c0.036,0.266,0.072,0.532,0.107,0.798
					c-0.007-0.051-0.006-0.102,0.001-0.153c-0.036,0.266-0.071,0.532-0.107,0.798c0.008-0.055,0.023-0.108,0.044-0.16
					c-0.101,0.239-0.202,0.478-0.302,0.717c0.024-0.055,0.053-0.106,0.09-0.153c-0.156,0.202-0.313,0.405-0.469,0.607
					c0.032-0.041,0.069-0.077,0.11-0.109c-0.202,0.156-0.405,0.313-0.607,0.469c0.036-0.027,0.073-0.049,0.114-0.067
					c-0.239,0.101-0.478,0.202-0.717,0.302c0.041-0.017,0.084-0.029,0.128-0.035c-0.266,0.036-0.532,0.071-0.798,0.107
					c0.014-0.002,0.028-0.003,0.042-0.003c0.413,0.016,0.798-0.07,1.156-0.258c0.372-0.121,0.694-0.328,0.965-0.62
					c0.293-0.272,0.499-0.594,0.62-0.965c0.188-0.357,0.274-0.743,0.258-1.156c-0.036-0.266-0.071-0.532-0.107-0.798
					c-0.143-0.508-0.4-0.949-0.771-1.324c-0.202-0.156-0.405-0.313-0.607-0.469C119.466,192.92,118.961,192.783,118.419,192.781
					L118.419,192.781z"/>
			</g>
		</g>
		<g>
			<g>
				<path style="fill:#F7B294;" d="M139.02,204.57c0.155-0.092,0.295-0.209,0.432-0.324c0.04-0.034,0.077-0.071,0.111-0.111
					c0.143-0.168,0.301-0.353,0.392-0.561c0.067-0.153,0.154-0.326,0.198-0.496c0.045-0.172,0.06-0.357,0.079-0.531
					c0.025-0.236-0.02-0.481-0.069-0.71c-0.071-0.254-0.2-0.475-0.386-0.662c-0.136-0.146-0.297-0.25-0.483-0.31
					c-0.179-0.094-0.371-0.137-0.578-0.129c-0.271,0.001-0.523,0.069-0.757,0.205c-0.083,0.052-0.159,0.116-0.237,0.176
					c-0.077,0.059-0.159,0.117-0.229,0.185c-0.138,0.133-0.252,0.296-0.361,0.452c-0.042,0.059-0.077,0.122-0.107,0.188
					c-0.081,0.177-0.171,0.363-0.219,0.554c-0.008,0.034-0.015,0.067-0.021,0.102c-0.027,0.162-0.052,0.327-0.064,0.491
					c-0.006,0.072-0.004,0.144,0.004,0.216c0.021,0.196,0.035,0.408,0.097,0.599c0.048,0.149,0.117,0.293,0.18,0.435
					c0.017,0.038,0.035,0.075,0.055,0.111c0.078,0.101,0.156,0.202,0.235,0.304c0.101,0.078,0.202,0.156,0.304,0.235
					c0.119,0.05,0.239,0.101,0.358,0.151c0.199,0.063,0.399,0.071,0.598,0.027c0.135-0.001,0.262-0.035,0.379-0.102
					c0.127-0.036,0.237-0.1,0.331-0.193c0.113-0.067,0.202-0.156,0.269-0.269c0.133-0.145,0.222-0.315,0.269-0.51
					c0.139-0.379,0.277-0.758,0.416-1.136c0.072-0.266,0.072-0.532,0-0.798c-0.046-0.195-0.136-0.365-0.268-0.51
					c-0.106-0.163-0.246-0.292-0.421-0.386c-0.234-0.136-0.486-0.204-0.757-0.205c-0.2-0.005-0.408,0.022-0.6,0.078
					c-0.152,0.044-0.301,0.116-0.444,0.183c-0.033,0.015-0.065,0.032-0.096,0.052c-0.334,0.215-0.608,0.481-0.811,0.826
					c-0.406,0.692-0.441,1.583-0.027,2.28c0.094,0.175,0.223,0.315,0.386,0.421c0.145,0.133,0.315,0.222,0.51,0.268
					c0.133,0.018,0.266,0.036,0.399,0.054c0.271-0.001,0.523-0.069,0.757-0.205c0.344-0.217,0.582-0.462,0.805-0.8
					c0.107-0.162,0.174-0.357,0.243-0.534c0.025-0.065,0.045-0.132,0.058-0.201c0.029-0.157,0.05-0.319,0.065-0.478
					c0.004-0.036,0.006-0.073,0.006-0.11c-0.001-0.196-0.035-0.396-0.072-0.586c-0.036-0.184-0.135-0.38-0.206-0.538
					c-0.03-0.067-0.065-0.129-0.11-0.188c-0.078-0.101-0.156-0.202-0.235-0.304c-0.136-0.146-0.297-0.25-0.483-0.31
					c-0.117-0.068-0.243-0.102-0.378-0.102c-0.199-0.045-0.399-0.036-0.598,0.027c-0.336,0.121-0.52,0.218-0.784,0.454
					c-0.019,0.017-0.036,0.035-0.053,0.054c-0.081,0.092-0.185,0.225-0.253,0.328c-0.007,0.011-0.014,0.021-0.021,0.032
					c-0.182,0.308-0.283,0.693-0.278,1.051c0.005,0.358,0.095,0.733,0.283,1.042c0.008,0.013,0.017,0.025,0.026,0.038
					c0.071,0.103,0.166,0.228,0.249,0.321c0.019,0.021,0.039,0.039,0.06,0.058c0.258,0.225,0.454,0.342,0.786,0.45
					c0.266,0.071,0.532,0.071,0.798,0c0.254-0.071,0.475-0.2,0.662-0.386c0.216-0.267,0.337-0.403,0.431-0.741
					c0.043-0.155,0.064-0.319,0.061-0.48c-0.008-0.457-0.198-0.886-0.516-1.212c-0.248-0.255-0.511-0.383-0.836-0.504
					c-0.329-0.122-0.681-0.096-1.017-0.031c-0.319,0.062-0.635,0.267-0.862,0.493c-0.269,0.269-0.401,0.543-0.529,0.894
					c-0.019,0.051-0.032,0.105-0.042,0.159c-0.033,0.18-0.058,0.362-0.072,0.544c-0.009,0.117-0.006,0.235,0,0.352
					c-0.008,0.206,0.035,0.399,0.129,0.578c0.061,0.186,0.164,0.347,0.31,0.483c0.136,0.146,0.297,0.25,0.483,0.31
					c0.179,0.094,0.371,0.137,0.578,0.129c0.133-0.018,0.266-0.036,0.399-0.054c0.254-0.071,0.475-0.2,0.662-0.386
					c0.262-0.285,0.46-0.662,0.439-1.061c-0.007-0.144-0.009-0.288,0.008-0.431c-0.018,0.133-0.036,0.266-0.054,0.399
					c0.012-0.088,0.031-0.173,0.064-0.255c-0.05,0.12-0.101,0.239-0.151,0.358c0.022-0.052,0.049-0.101,0.083-0.147
					c-0.078,0.101-0.156,0.202-0.235,0.304c0.032-0.04,0.066-0.074,0.106-0.106c-0.101,0.078-0.202,0.156-0.304,0.234
					c0.018-0.013,0.037-0.024,0.057-0.034c-0.119,0.05-0.239,0.101-0.358,0.151c0.031-0.013,0.061-0.021,0.094-0.025
					c-0.133,0.018-0.266,0.036-0.399,0.054c0.033-0.003,0.065-0.002,0.098,0.001c-0.133-0.018-0.266-0.036-0.399-0.054
					c0.039,0.006,0.076,0.016,0.113,0.031c-0.119-0.05-0.239-0.101-0.358-0.151c0.041,0.017,0.079,0.039,0.115,0.065
					c-0.101-0.078-0.202-0.156-0.304-0.235c0.029,0.023,0.055,0.048,0.078,0.077c-0.078-0.101-0.156-0.202-0.234-0.304
					c0.015,0.02,0.027,0.04,0.038,0.062c-0.05-0.119-0.101-0.239-0.151-0.358c0.009,0.022,0.015,0.043,0.019,0.066
					c-0.018-0.133-0.036-0.266-0.054-0.399c0.002,0.018,0.001,0.036-0.001,0.054c0.018-0.133,0.036-0.266,0.054-0.399
					c-0.003,0.014-0.006,0.027-0.011,0.04c0.05-0.12,0.101-0.239,0.151-0.358c-0.008,0.019-0.018,0.036-0.03,0.053
					c0.078-0.101,0.156-0.202,0.234-0.303c-0.004,0.004-0.007,0.009-0.01,0.013c0.486-0.129,0.973-0.257,1.459-0.386
					c-0.015-0.005-0.03-0.01-0.045-0.017c0.12,0.05,0.239,0.101,0.358,0.151c-0.028-0.013-0.054-0.029-0.079-0.048
					c0.101,0.078,0.202,0.156,0.304,0.235c-0.028-0.023-0.052-0.048-0.074-0.076c0.078,0.101,0.156,0.202,0.234,0.304
					c-0.024-0.033-0.044-0.069-0.06-0.107c0.05,0.119,0.101,0.239,0.151,0.358c-0.018-0.044-0.029-0.089-0.037-0.136
					c0.018,0.133,0.036,0.266,0.054,0.399c-0.008-0.059-0.008-0.116,0-0.175c-0.018,0.133-0.036,0.266-0.054,0.399
					c0.007-0.047,0.019-0.092,0.037-0.136c-0.05,0.119-0.101,0.239-0.151,0.358c0.016-0.038,0.036-0.073,0.061-0.106
					c-0.078,0.101-0.156,0.202-0.235,0.303c0.022-0.028,0.046-0.053,0.075-0.075c-0.101,0.078-0.202,0.156-0.304,0.235
					c0.025-0.019,0.051-0.034,0.08-0.047c-0.119,0.05-0.239,0.101-0.358,0.151c0.01-0.004,0.02-0.008,0.03-0.012
					c-0.565-0.23-1.129-0.46-1.694-0.689c0.044,0.059,0.081,0.121,0.11,0.188c-0.05-0.119-0.101-0.239-0.151-0.358
					c0.03,0.074,0.051,0.15,0.063,0.228c-0.018-0.133-0.036-0.266-0.054-0.399c0.012,0.093,0.012,0.185,0.001,0.278
					c0.018-0.133,0.036-0.266,0.053-0.399c-0.013,0.093-0.037,0.182-0.073,0.269c0.05-0.119,0.101-0.239,0.151-0.358
					c-0.034,0.079-0.077,0.153-0.13,0.222c0.078-0.101,0.156-0.202,0.234-0.304c-0.046,0.057-0.097,0.107-0.155,0.152
					c0.101-0.078,0.202-0.156,0.303-0.235c-0.021,0.016-0.043,0.031-0.066,0.045c0.684,0.179,1.368,0.359,2.052,0.538
					c-0.016-0.027-0.03-0.054-0.043-0.083c0.05,0.119,0.101,0.239,0.151,0.358c-0.021-0.051-0.035-0.104-0.044-0.158
					c0.018,0.133,0.036,0.266,0.053,0.399c-0.009-0.067-0.008-0.133,0-0.201c-0.018,0.133-0.036,0.266-0.054,0.399
					c0.011-0.074,0.031-0.145,0.059-0.214c-0.05,0.119-0.101,0.239-0.151,0.358c0.032-0.075,0.073-0.145,0.123-0.21
					c-0.078,0.101-0.156,0.202-0.235,0.304c0.043-0.054,0.09-0.102,0.144-0.145c-0.101,0.078-0.202,0.156-0.304,0.235
					c0.054-0.041,0.111-0.075,0.173-0.102c-0.119,0.05-0.239,0.101-0.358,0.151c0.051-0.02,0.104-0.035,0.158-0.043
					c-0.133,0.018-0.266,0.036-0.399,0.054c0.037-0.005,0.074-0.007,0.112-0.006c-0.482-0.633-0.964-1.266-1.446-1.899
					c-0.139,0.379-0.277,0.758-0.416,1.136c0.914-0.119,1.828-0.239,2.742-0.358c-0.021-0.036-0.039-0.073-0.055-0.111
					c0.05,0.12,0.101,0.239,0.151,0.358c-0.034-0.083-0.057-0.169-0.069-0.257c0.018,0.133,0.036,0.266,0.054,0.399
					c-0.013-0.103-0.012-0.206,0.001-0.309c-0.018,0.133-0.036,0.266-0.054,0.399c0.015-0.103,0.043-0.202,0.083-0.298
					c-0.05,0.119-0.101,0.239-0.151,0.358c0.039-0.089,0.087-0.171,0.146-0.248c-0.078,0.101-0.156,0.202-0.235,0.304
					c0.052-0.065,0.109-0.123,0.174-0.174c-0.101,0.078-0.202,0.156-0.304,0.235c0.027-0.021,0.056-0.041,0.085-0.059
					c-0.734-0.299-1.469-0.598-2.204-0.896c0.006,0.029,0.012,0.059,0.016,0.088c-0.018-0.133-0.036-0.266-0.053-0.399
					c0.009,0.082,0.008,0.163-0.003,0.245c0.018-0.133,0.036-0.266,0.054-0.399c-0.013,0.082-0.034,0.16-0.065,0.237
					c0.05-0.119,0.101-0.239,0.151-0.358c-0.035,0.083-0.08,0.16-0.134,0.233c0.078-0.101,0.156-0.202,0.235-0.303
					c-0.051,0.065-0.109,0.122-0.174,0.173c0.101-0.078,0.202-0.156,0.304-0.234c-0.03,0.022-0.061,0.043-0.093,0.062
					c-0.175,0.094-0.315,0.223-0.421,0.386c-0.133,0.145-0.222,0.315-0.268,0.51c-0.063,0.199-0.071,0.399-0.027,0.598
					c0.009,0.2,0.068,0.385,0.178,0.558c0.206,0.32,0.514,0.602,0.896,0.689c0.133,0.018,0.266,0.036,0.399,0.054
					C138.534,204.774,138.786,204.706,139.02,204.57L139.02,204.57z"/>
			</g>
		</g>
	</g>
</g>
</svg>
